<?xml version="1.0" encoding="utf-8"?>
<!-- Generator: Adobe Illustrator 19.0.0, SVG Export Plug-In . SVG Version: 6.00 Build 0)  -->
<svg version="1.1" id="Layer_1" xmlns="http://www.w3.org/2000/svg" xmlns:xlink="http://www.w3.org/1999/xlink" x="0px" y="0px"
	 width="1400px" height="980px" viewBox="0 0 1400 980" enable-background="new 0 0 1400 980" xml:space="preserve">
<g id="XMLID_430_">
	<defs>
		<rect id="XMLID_427_" x="3.1" width="1394.1" height="980"/>
	</defs>
	<clipPath id="XMLID_432_">
		<use xlink:href="#XMLID_427_"  overflow="visible"/>
	</clipPath>
	<g id="XMLID_426_" clip-path="url(#XMLID_432_)">
		<path id="XMLID_425_" fill-rule="evenodd" clip-rule="evenodd" fill="#EAF3D5" d="M-35.1,530.3c61.6-9.5,121.2-31.6,174.2-64.5
			c14.3-8.9,28.6-18.7,45.1-21.8c11.5-2.1,23.3-0.9,34.9-2.1c25.9-2.7,48.9-17.2,70.8-31.4c85.7-55.5,171.4-111,257.1-166.5
			c5.1-3.3,10.6-6.7,16.7-7c7.4-0.3,14.1,4,20.2,8.2c69,47.2,138,94.5,207,141.7c27.4,18.7,58.5,38.3,91.1,32.7
			c11.4-2,22.7-7,34.1-5c9,1.6,16.7,7.4,23.7,13.2c32.9,27.5,54.2,66.3,84.9,94.1c30.4,27.5,94.3,39.3,132.7,53.6
			c96.8,36,194.9,69,295.6,92.1c6.3,32.2,29.3,73.4-13.5,77.5c-42.6,4-85.6,5.8-128.3,8.7c-85.5,5.8-171.1,11.6-256.6,17.4
			c-134.3,9.1-268.6,18.2-403.2,19.7c-171.5,1.9-343.7-8.4-514.2,10.6c-73.8,8.2-149.2,21.8-221.6,5.2
			c-5.1-40.5-10.3-80.9-15.4-121.4L-35.1,530.3z"/>
		<path id="XMLID_424_" fill-rule="evenodd" clip-rule="evenodd" fill="#80AB43" d="M-10.1,722.9C0.4,675.1,3.3,625.7-1.6,577
			c10.1,6.2,18.4,15.1,24,25.6c0.6-4.6,3.4-9,7.4-11.4c2.6,3.1,5.1,6.1,7.7,9.2c4.3-5.1,8.7-10.2,13-15.3c2.1,5.4,4.2,10.9,6.3,16.3
			c6-6.1,13.4-10.8,21.5-13.7c9.9,9.6,26.3,11.5,38.1,4.5c0.2-7,0.4-13.9,0.5-20.9c1.3,7.1,3.5,14,6.6,20.6
			c9.3-1.9,18.8-3.1,28.2-4.3c7-0.9,13.9-1.8,20.9-2.7c32.5-4.2,65-8.3,97.5-12.5c35.4-4.5,70.9-9.1,106.6-8.5
			c-6.7,63.8-9.7,127.9-9,192C246.5,768,124.2,768.7,2.9,757.8L-10.1,722.9z"/>
		<g id="XMLID_423_">
			<path id="XMLID_428_" fill-rule="evenodd" clip-rule="evenodd" fill="#7D5131" d="M1209.6,424.7c-2.3-2.9-5.9-2.5-8.5-0.2
				c-2.6,2.3-4.4,6.1-6,9.7c-10.7,23.9-19.7,49.3-27,75.8c6.2-32.2,12.7-64.2,19.4-96.2c-3.3,0.8-6.8-0.7-9.4-3.8
				c-16.8,36-33.7,75.2-34.3,118.7c-7.3-25.1-16.5-49-27.4-71.2c-5.2,6-10.5,12-15.7,18c8,16.6,14.5,34.5,19.8,53.2
				c0-0.9,0-1.8,0-2.8c0,0.9,0,1.9,0,2.8c1.9,6.6,3.6,13.4,5.1,20.2c1.1-3.8,0.1-10,2.4-10c2.1,0,0.7,8,4.8,10c0-2,1.4-5,0.7-7
				c3.4,1,1.4,11,6.2,9c1.4-1,2.1-5,2.8-8c0,3-0.7,6,0.7,8c2.8,1,5.5-1,6.9-5c0,4-4.1,9-2.1,11c2.8,3,6.9-3,9.6-8c0,3,0,6,0,9
				c3.4,0,4.1-6,5.5-9c0,3,0,8,1.4,9c4.1,2,2.1-7,4.1-8c1.4-1,0.7,6,2.8,4c2.1-1,2.1-6,2.8-10c0,4,1.4,8,2.8,8
				c0.7-0.1,1.4-0.3,1.9-0.7c2.7-44.6,12.1-88.5,30.6-124.2L1209.6,424.7z"/>
			<path id="XMLID_429_" fill-rule="evenodd" clip-rule="evenodd" fill="#A96F47" d="M1174.4,544c-0.7,4-0.7,9-2.8,10
				c-2.1,2-1.4-5-2.8-4c-2.1,1,0,10-4.1,8c-1.4-1-1.4-6-1.4-9c-1.4,3-2.1,9-5.5,9c0-3,0-6,0-9c-2.8,5-6.9,11-9.6,8
				c-2.1-2,2.1-7,2.1-11c-1.4,4-4.1,6-6.9,5c-1.4-2-0.7-5-0.7-8c-0.7,3-1.4,7-2.8,8c-4.8,2-2.8-8-6.2-9c0.7,2-0.7,5-0.7,7
				c-4.1-2-2.8-10-4.8-10c-2.3,0-1.3,6.2-2.4,10c3.8,16.7,6.7,33.9,8.9,51.2c5.5,44.3,6.2,89.5,5.7,134.5c18.2-3,36.5-5.1,54.8-6.3
				c-9.8-50.2-17.5-101.9-17-154.1c0.1-7.6,0.3-15.3,0.8-23c-0.6,0.4-1.2,0.6-1.9,0.7C1175.7,552,1174.4,548,1174.4,544z"/>
		</g>
		<g id="XMLID_395_">
			<g id="XMLID_396_">
				<g id="XMLID_421_">
					<path id="XMLID_422_" fill-rule="evenodd" clip-rule="evenodd" fill="#80AB43" d="M1155.2,397.6c7,0-4,10-1,13c4,4,14-4,18,0
						c4,3-4,13,0,16c5,3,10-5,15-9c1,6-4,13,2,17c7,5,11-5,12-11c4,4,3,15,10,11c4-2,2-9,4-13c0,4,0,8,2,9c5,2,6-7,6-11
						c5,4,0,11,4,13c6,4,7-6,8-11c0,5,0,9,0,14c6-2,6-9,10-12c0,5,0,11,0,16c7-1,11-12,18-9c1,1,0,6,0,9c8-2,7-13,16-8c1-3,4-6,4-10
						c2,4,6,5,10,4c3.1-1.6,3.8-5.6,4-9.2c-0.2-0.8-0.2-1.7,0-2.8c0,0.9,0,1.8,0,2.8c0.6,2.3,2.6,3.7,4,5.2c3-4,4-9,4-14
						c0,7,3,12,8,13c4,1,3-8,8-9c0,5-2,12,4,13c5,1,9-3,14-5c-1,3,1,6,3,7c5,5,7-4,11-7c-2,3,1,7,2,7c5,2,6-7,6-11c4,1,4,5,6,5
						c9-1,10-16,6-23c3,2,4,6,8,6c-1-5,3-11-2-16c3,1,6,3,10,2c-1-3,3-7-2-10c4-1,8,6,9,0c0.5-1.5,0.8-3.1,1-4.6
						c-2.1,0.3-4,0.9-5.9,1.9c3.7-8.3-8.3-17.1-15.6-13c-0.5,0.6-1.1,1.1-1.9,1.5c0.6-0.6,1.2-1.1,1.9-1.5c3.4-4.2,0-12.6-5.9-14.2
						c-6.8-1.8-13.6,2-19.6,5.6c3-3.9,2.3-10.2-1.5-13.3c-3.8-3.2-10-2.8-13.4,0.8c1.1-4.4,2.2-8.8,3.4-13.2
						c-4.6-0.5-9.2,0.2-13.4,2c-0.8,0.4-1.6,0.8-2.4,1.1c0.8-0.4,1.6-0.8,2.4-1.1c4.9-2.7,8.8-7,10.9-12.1
						c-7.5-1.4-15.7,0.8-21.4,5.9l-8.4,0.2c-2-3.7-1.9-8.5,0.3-12.1c-3,3.7-7.1,6.5-11.6,8c0.7-4.7-0.2-9.7-2.6-13.9
						c-3.9,3.4-7.8,6.8-11.6,10.1c-2.7-4.2-5.3-8.4-8-12.6c-2.7,3.6-5.5,7.2-8.2,10.7c-2.5-6.8-7.6-12.6-14-15.9
						c-0.1,6.2,1.9,12.4,5.5,17.5c-6-7.2-14.6-12.3-23.8-13.9c3.9,4.7,7.9,9.4,11.8,14.1c-6-5-13.1-8.7-20.6-10.7
						c-2.4,2.6-3,6.5-2,9.9c1.4,1.3,2.4,2.9,3,4.6c-1.4-1.2-2.4-2.9-3-4.6c-2.2-2.1-5.3-3.3-8.4-3c0,5,0,10.1,0,15.1
						c-5.3-5.9-11.5-11-18.4-15c1.1,3.3,2.3,6.6,3.4,10c-9.7-3.4-20.1-4.6-30.3-3.4c3.6,2.2,7.2,4.3,10.7,6.5
						c-7.9,0.2-15.8,0.4-23.7,0.6c2.7,5.4,7.9,9.6,13.7,11.1c-6.3,2.4-13.1,3.4-19.8,2.9c3.1,3.9,6.3,7.9,9.4,11.8
						c-4.7-5.2-10.9-8.9-17.7-10.6c0.8,4.8,4.3,8.9,8.7,10.9c1.6,0.4,3.2,0.8,4.7,1.2c-1.6-0.1-3.2-0.5-4.7-1.2
						c-3.8-0.8-7.6-1.3-11.3-0.4c-5.3,1.3-10.1,6.4-9,11.7c5.2,0.1,10.3,0.1,15.5,0.2c-7.1,1.8-13.5,6.2-17.7,12.2
						c8.5-1.4,16.9-2.8,25.4-4.2c-8.4,4-15.4,11-19.4,19.4c4.5,1.5,9.6,0.9,13.9-1.3c1.4-1.2,2.9-2.4,4.5-3.3
						c-1.3,1.4-2.8,2.5-4.5,3.3c-3.5,3.1-6.3,6.8-8.2,11C1143.6,399.2,1149.4,397,1155.2,397.6z"/>
				</g>
				<path id="XMLID_397_" fill-rule="evenodd" clip-rule="evenodd" fill="#6E9639" d="M1413.3,395.8c-3.8,0.9-7.4-3.1-7.6-7.1
					c-0.2-3.9,1.9-7.6,3.9-10.9c-3.6-2.5-8.2-3.4-12.5-2.8c-0.2,1.5-0.5,3.1-1,4.6c-1,6-5-1-9,0c5,3,1,7,2,10c-4,1-7-1-10-2
					c5,5,1,11,2,16c-4,0-5-4-8-6c4,7,3,22-6,23c-2,0-2-4-6-5c0,4-1,13-6,11c-1,0-4-4-2-7c-4,3-6,12-11,7c-2-1-4-4-3-7c-5,2-9,6-14,5
					c-6-1-4-8-4-13c-5,1-4,10-8,9c-5-1-8-6-8-13c0,5-1,10-4,14c-1.5-1.5-3.5-2.9-4-5.2c-0.1,3.6-0.8,7.6-4,9.2c-4,1-8,0-10-4
					c0,4-3,7-4,10c-9-5-8,6-16,8c0-3,1-8,0-9c-7-3-11,8-18,9c0-5,0-11,0-16c-4,3-4,10-10,12c0-5,0-9,0-14c-1,5-2,15-8,11
					c-4-2,1-9-4-13c0,4-1,13-6,11c-2-1-2-5-2-9c-2,4,0,11-4,13c-7,4-6-7-10-11c-1,6-5,16-12,11c-6-4-1-11-2-17c-5,4-10,12-15,9
					c-4-3,4-13,0-16c-4-4-14,4-18,0c-3-3,8-13,1-13c-5.8-0.6-11.6,1.6-17.1,4.6c-0.7,1.6-1.3,3.2-1.8,4.9c5.8-1.4,11.2-4.6,15.2-9.1
					c-4.6,8.4-9.2,16.7-13.8,25.1c7.5-0.6,14.8-3.3,20.9-7.8c-0.5,5.4-0.9,10.8-1.4,16.2c5.3-1.3,10.6-2.5,16-3.8
					c-6,7.8-12.1,15.5-18.1,23.3c6.6,1.1,13.6-0.3,19.3-4c-4.9,2.7-7.6,8.8-6.2,14.2c5.6-0.2,11.1-3.1,14.4-7.6
					c0.1,5.7,0.1,11.4,0.2,17c5.2,1.6,11.3-1.5,13.1-6.6c0.8,6.4,3.1,12.6,6.8,17.9c5.1-5.4,9-11.9,11.5-18.9
					c2.2,4.9,4.5,9.8,6.7,14.7c4.4-4.6,6.7-11.3,6-17.7c3.3,5.9,6.6,11.7,9.9,17.6c1.9-3.6,3.9-7.1,5.8-10.7
					c3.5,3.8,5.1,9.3,4.2,14.4c4.5-3.4,9.1-6.7,13.6-10.1c0.2,5.3,0.3,10.6,0.5,15.9c5.4-0.5,9.5-6.7,7.8-11.8
					c2.5,3.8,5,7.7,7.5,11.5c3.3-4.5,5.7-9.7,6.9-15.2c3.3,3.1,6.6,6.3,9.8,9.4c2.1-4.9,2.8-10.4,2-15.7c4,3.6,8.9,6.3,14.1,7.6
					c1.9-4.1,1.9-9.1-0.1-13.1c1.6,2.4,4.7,3.7,7.5,3.1c0.9-4.2,0.2-8.7-1.9-12.4c-0.4-0.5-0.8-1.1-1.1-1.7c0.4,0.5,0.8,1.1,1.1,1.7
					c1.6,2.2,3.8,3.9,6.2,4.9c2.6-3.6,2.9-8.7,0.7-12.5c3.7,4,7.4,7.9,11.1,11.9c3.2-3.5,7.4-6.2,11.9-7.6c0.4,4.9,3,9.5,6.8,12.5
					c3.8-2.5,6-7.4,5.2-11.9c1,5,5,9.3,9.9,10.7c3.7-3.8,5.3-9.5,4.1-14.7c0.9,3.9,3.5,7.3,6.9,9.3c4.5-3.7,6.2-10.5,4-15.9
					c2.3,1.9,4.7,3.9,7,5.8c4.9-4.1,5.9-12.1,2.1-17.3c3.6,2.8,9-2.2,8.3-6.7c-0.7-4.5-4.7-7.7-8.4-10.4
					C1399.2,407,1407.3,402.4,1413.3,395.8z"/>
			</g>
			<path id="XMLID_403_" fill-rule="evenodd" clip-rule="evenodd" fill="#6E9639" d="M1152.4,265.7c-0.3,0.6-0.5,1.1-0.7,1.7
				C1151.9,266.9,1152.1,266.3,1152.4,265.7z"/>
			<path id="XMLID_404_" fill-rule="evenodd" clip-rule="evenodd" fill="#6E9639" d="M1305,255.3c-0.9-0.1-1.8-0.3-2.7-0.4
				C1303.1,255.3,1304.1,255.4,1305,255.3z"/>
			<path id="XMLID_406_" fill-rule="evenodd" clip-rule="evenodd" fill="#6E9639" d="M1314.3,296.8c-0.4,0.3-0.9,0.5-1.3,0.8
				C1313.5,297.4,1313.9,297.1,1314.3,296.8z"/>
			<path id="XMLID_407_" fill-rule="evenodd" clip-rule="evenodd" fill="#6E9639" d="M1336.4,344.7c-0.4-0.3-0.7-0.6-1.1-0.9
				C1335.7,344.2,1336,344.5,1336.4,344.7z"/>
			<path id="XMLID_408_" fill-rule="evenodd" clip-rule="evenodd" fill="#6E9639" d="M1227.1,427.5c0-1.4-0.2-2.8-0.6-4.2
				C1226.4,424.8,1226.6,426.2,1227.1,427.5z"/>
			<path id="XMLID_409_" fill-rule="evenodd" clip-rule="evenodd" fill="#6E9639" d="M1317.9,361.5c1,0.8,2,1.5,3.1,2.3
				C1320.1,362.9,1319,362.1,1317.9,361.5z"/>
			<path id="XMLID_410_" fill-rule="evenodd" clip-rule="evenodd" fill="#80AB43" d="M1336.4,344.7c-0.4-0.2-0.7-0.5-1.1-0.9
				C1335.7,344.1,1336.1,344.4,1336.4,344.7c5,2.9,12.1-6.2,8.4-11.8c-4-6-12.6-6.3-19.7-5.2c7.4-1.8,13.7-7.2,16.6-14.3
				c-7.1-2.5-15.2-2.3-22.2,0.5c7-4.3,12.5-11.2,15.1-19c-6.6-2.6-14.4-1.9-20.5,1.8c-0.3,0.3-0.7,0.6-1.3,0.8
				c0.4-0.3,0.8-0.6,1.3-0.8c2.4-2.5-0.1-8.5-4.2-9c-4.6-0.6-8.7,2.9-12,6.1c6.4-6.8,12.8-13.6,19.2-20.5
				c-7.4-0.2-14.7-0.4-22.1-0.6c9.6-3.7,18.6-8.9,26.6-15.3c-5.6-0.8-11.2-1.5-16.8-2.3c-0.9,0.1-1.9,0-2.7-0.4
				c0.9,0.1,1.8,0.3,2.7,0.4c2.8-0.3,5.4-2.6,5.6-5.4c-9.4-1.5-19.2-0.5-28.1,2.9c5.9-3.5,9.6-10.5,9.2-17.4
				c-5.9-0.1-11.9,2-16.4,5.8c4.6-4.8,7.5-11.2,7.8-17.9c-7.7,1.4-15.1,4.3-21.7,8.5c2.6-3.8,3.7-8.5,3.1-13
				c-9.2,4.2-17.5,10.4-24,18.2c1.7-8.2,4.7-16.2,8.8-23.5c-9.7,0-19.3,3.4-26.8,9.5c0.1-3.7,0.2-7.5,0.3-11.2
				c-4.6,0.8-8.8,3.6-11.3,7.5c-0.8-3.7-1.7-7.3-2.5-11c-7.4,1.7-13.6,7.6-15.7,14.9c-0.8-9.9-19-10-19.9-0.1
				c0.1-8.9,0.3-17.7,0.4-26.6c-4.7,3-9.5,6-14.2,9c3.2-2.9,3.9-8.3,1.4-11.8c-2.8,2-4.8,5.1-5.7,8.4c-2.1-2.8-4.2-5.6-6.2-8.4
				l-8.5,13.9c2.4-11.6,2.4-23.7,0.1-35.3c-6.4,9.9-12.8,19.7-19.2,29.6c0.4-6.8-3.8-13.6-10.1-16.3c-1,5.4-0.4,11,1.5,16.1
				c-5.2-3.2-10.4-6.5-15.6-9.7c0.9,3.3,1.8,6.5,2.7,9.8c-8.7-8.3-20.9-12.7-32.9-12.1c0.7,9.3,3.9,18.4,9.1,26.1
				c-3.9-4.2-9.2-7.1-14.9-8c0,5.4,0,10.9,0,16.3c-1.6-4.1-4.6-7.7-8.3-9.9c0.4,5.1,0.7,10.2,1.1,15.3
				c-5.3-11.8-21.3-17.2-32.7-11.2c3.8,5,7.6,9.9,11.5,14.9c-4.2-4-10.3-6-16.1-5.2c0.9,6.1,4.6,11.8,9.9,15.1
				c-11.6-5.9-25.8-6.3-37.7-1c6.6,1.2,13.2,2.4,19.8,3.7c-7.2-1.5-15.1,0.7-20.4,5.9c5.5,3.1,10.4,7.3,14.2,12.4
				c-4.8-4.3-10.9-7.3-17.2-8.5c-0.5,7.6,0.9,15.2,4,22.1c-5.5-5-11-10-16.4-14.9c6.7,7,10.4,17.4,18.9,18.9c4,1,3-9,6-14
				c3,3,5,8,6,12c4-3,1-13,8-11c3,1,2,12,7,8c6-5,5-19,13-23c0,4,1,14,6,12c6-3,4-12,10-16c-1,6,2,11,2,16c7,0,7-9,11-11
				c5-3,2,9,3,13c5-2,9-11,13-7c5,4-4,5-5,11c6-5,13-9,19-5c3,1,0,6-3,9c8-1,13-12,22-7c3,2-6,8,0,11c1-6,9-8,11-5c2,1,1,6,1,9
				c11-5,7-19,12-28c-1,4,5,4,4,8c7-4,5-16,12-17c6.4-0.9,5.3,12.4,2.7,19.3c3.3-7.1,9.9-12.1,17.3-10.3c-1,4-3,8-6,12
				c9-2,17-11,23-5c3,4-10,8-10,13c1,7,12-5,14-1c2,5-6,12-13,15c6,1,18-4,17,4c-1,6-11,7-13,14c5-1,11-3,16-4c0,5-3,9-6,12
				c8-5,19,0,25-5c5-5,8-15,14-18c8-4-2,13,5,19c2-5,8-12,11-9c4,3-2,8-1,13c6-1,12-7,17-3c6,4-3,15-9,19c3,0,6-2,8-4
				c-1,9-12,10-18,16c5,1,9-3,14-2c-2,6-8,7-12,10c6,1,12-5,18-1c1,0,0,4,0,7c5-2,10-9,16-5c1,1-1,6,0,6c5,3,12-5,15-2
				c4,5-5,10-9,15c6-2,11-5,16-8c2-1,3,0,4,2c1.9,5.8-2.7,9.8-5.8,13.7c8.5-2,17-4,25.5-5.9c-0.2-3.5-1.8-6.9-4.3-9.4
				c-1-0.8-2-1.5-3.1-2.3c1.1,0.6,2.1,1.4,3.1,2.3c3.3,2.5,6.6,5,9.9,7.4c-0.9-8,9.9-14.6,16.6-10
				C1345.6,354.8,1341.7,348.9,1336.4,344.7z"/>
			<path id="XMLID_411_" fill-rule="evenodd" clip-rule="evenodd" fill="#6E9639" d="M1305.6,365.4c-1-2-2-3-4-2c-5,3-10,6-16,8
				c4-5,13-10,9-15c-3-3-10,5-15,2c-1,0,1-5,0-6c-6-4-11,3-16,5c0-3,1-7,0-7c-6-4-12,2-18,1c4-3,10-4,12-10c-5-1-9,3-14,2
				c6-6,17-7,18-16c-2,2-5,4-8,4c6-4,15-15,9-19c-5-4-11,2-17,3c-1-5,5-10,1-13c-3-3-9,4-11,9c-7-6,3-23-5-19c-6,3-9,13-14,18
				c-6,5-17,0-25,5c3-3,6-7,6-12c-5,1-11,3-16,4c2-7,12-8,13-14c1-8-11-3-17-4c7-3,15-10,13-15c-2-4-13,8-14,1c0-5,13-9,10-13
				c-6-6-14,3-23,5c3-4,5-8,6-12c-7.4-1.9-13.9,3.2-17.3,10.3c-0.2,0.6-0.5,1.2-0.7,1.7c0.2-0.6,0.5-1.2,0.7-1.7
				c2.5-6.9,3.7-20.2-2.7-19.3c-7,1-5,13-12,17c1-4-5-4-4-8c-5,9-1,23-12,28c0-3,1-8-1-9c-2-3-10-1-11,5c-6-3,3-9,0-11
				c-9-5-14,6-22,7c3-3,6-8,3-9c-6-4-13,0-19,5c1-6,10-7,5-11c-4-4-8,5-13,7c-1-4,2-16-3-13c-4,2-4,11-11,11c0-5-3-10-2-16
				c-6,4-4,13-10,16c-5,2-6-8-6-12c-8,4-7,18-13,23c-5,4-4-7-7-8c-7-2-4,8-8,11c-1-4-3-9-6-12c-3,5-2,15-6,14
				c-8.4-1.5-12.2-11.9-18.9-18.9c-0.4-0.4-0.9-0.8-1.3-1.2c0.5,4.7,0.9,9.4,1.4,14.1c-5-3.1-10.7-5.1-16.6-5.7
				c-2.4,7.6,2.6,16.8,10.4,18.8c-10.3,1-19.8,7.9-23.9,17.3c5.9,3.7,13.2,5.1,20,3.7c-5.8,4.3-10.7,10-14,16.5
				c8.5,0.7,17.3-1.3,24.6-5.6c0.5-0.3,1.1-0.7,1.6-1c-0.5,0.3-1.1,0.7-1.6,1c-5.9,3.7-10.8,8.9-14,15c5,3.3,12.1,3.2,17-0.4
				c-5.8,7.4-11.6,14.8-17.5,22.2c6.2-2.2,12.4-4.3,18.6-6.5c-7.4,6.3-14.7,12.7-22.1,19c7.3-1.2,14.5-2.5,21.8-3.7
				c-7.1,1.9-13.3,7-16.4,13.7c10.5,2.8,22,1.8,31.9-2.9c-9.9,6.1-16.6,17.3-17.1,28.9c7.7,0.2,15.3-3.6,19.7-9.9
				c1.2,5.9,2.4,11.8,3.5,17.7c3.5-6.7,7.1-13.4,10.6-20c0,8.2,0.1,16.3,0.1,24.5c2.5-3.8,4.9-7.6,7.4-11.3c0.1,5,0.2,10,0.3,15
				c3.9-2.1,7.9-4.3,11.8-6.4c-0.6,9.9-4.8,19.6-11.6,26.8c5.4-3.5,11.5-5.7,17.9-6.5c-4.7,5.8-8.1,12.7-9.7,19.9
				c6.2-2.1,12.5-4.1,18.7-6.2c-1.7,4.9,5.2,9.2,10,7.3c4.8-1.9,7.5-7,9.7-11.7c1.9,4.9,3.7,9.8,5.6,14.7c5-0.4,6.4-6.8,8.7-11.2
				c2.3-4.4,11.3-5.4,10.4-0.4c4.3-5.2,6.8-11.9,6.9-18.7c2,4.1,4,8.3,6.1,12.4c3.1-3.4,5.1-7.8,5.6-12.4c3.2,4.2,6.4,8.4,9.6,12.6
				c5.7-6.4,8.8-15.1,8.3-23.7c1.8,5.8,3.6,11.5,5.4,17.3c5.2-1,9.8-4.8,11.9-9.7c0.6,6,1.3,12,1.9,18c7.1-2.9,13.5-7.6,18.3-13.7
				c0.2,5.2,0.3,10.4,0.5,15.7c6.1-3.2,12.3-6.4,18.4-9.6c1.5,7.8,3.1,15.7,4.6,23.5c6.2-9.8,17.4-20.9,27.3-14.9
				c2.1-5.8,4.1-11.6,6.2-17.4c2.1,2.6,4.2,5.2,6.2,7.8c0.9-2.4,1.3-4.9,1.3-7.4c-0.5-1.3-0.7-2.7-0.6-4.2c0.3,1.4,0.5,2.8,0.6,4.2
				c1.5,4.2,5.7,7.5,10.2,7.5c1.2-3.9,2.4-7.8,3.6-11.6c3,5.7,7.4,10.6,12.6,14.3c1.7-5.4,0-11.8-4.1-15.7
				c5.1,2.1,10.3,4.1,15.4,6.2c4.5-7.1,2.9-17.4-3.5-22.9c8.4,0.8,16.8,1.7,25.1,2.5c-1-6.2-5.5-11.7-11.4-14
				c10.9,1.2,22.2-1,31.8-6.3c-4.6-4.5-11.4-6.7-17.8-5.9c3.6-0.8,7.1-1.7,10.7-2.5C1302.9,375.2,1307.6,371.3,1305.6,365.4z"/>
			<path id="XMLID_402_" fill-rule="evenodd" clip-rule="evenodd" fill="#80AB43" d="M1152.2,385.7c-0.7,0.4-1.3,0.9-1.9,1.5
				C1151.1,386.8,1151.7,386.3,1152.2,385.7z"/>
			<path id="XMLID_412_" fill-rule="evenodd" clip-rule="evenodd" fill="#80AB43" d="M1101.7,353.4c-0.8,0.3-1.6,0.7-2.4,1.1
				C1100.2,354.2,1101,353.8,1101.7,353.4z"/>
			<path id="XMLID_413_" fill-rule="evenodd" clip-rule="evenodd" fill="#80AB43" d="M1073.6,438.2c0-1,0-1.9,0-2.8
				C1073.4,436.5,1073.4,437.4,1073.6,438.2z"/>
			<g id="XMLID_394_">
				<g id="XMLID_386_">
					<path id="XMLID_417_" fill-rule="evenodd" clip-rule="evenodd" fill="#80AB43" d="M931.6,419.4c7,0-4,10-1,13c4,4,14-4,18,0
						c4,3-4,13,0,16c5,3,10-5,15-9c1,6-4,13,2,17c7,5,11-5,12-11c4,4,3,15,10,11c4-2,2-9,4-13c0,4,0,8,2,9c5,2,6-7,6-11
						c5,4,0,11,4,13c6,4,7-6,8-11c0,5,0,9,0,14c6-2,6-9,10-12c0,5,0,11,0,16c7-1,11-12,18-9c1,1,0,6,0,9c8-2,7-13,16-8c1-3,4-6,4-10
						c2,4,6,5,10,4c3.1-1.6,3.8-5.6,4-9.2c-0.2-0.8-0.2-1.7,0-2.8c0,0.9,0,1.8,0,2.8c0.6,2.3,2.6,3.7,4,5.2c3-4,4-9,4-14
						c0,7,3,12,8,13c4,1,3-8,8-9c0,5-2,12,4,13c5,1,9-3,14-5c-1,3,1,6,3,7c5,5,7-4,11-7c-2,3,1,7,2,7c5,2,6-7,6-11c4,1,4,5,6,5
						c9-1,10-16,6-23c3,2,4,6,8,6c-1-5,3-11-2-16c3,1,6,3,10,2c-1-3,3-7-2-10c4-1,8,6,9,0c0.5-1.5,0.8-3.1,1-4.6
						c-2.1,0.3-4,0.9-5.9,1.9c3.7-8.3-8.3-17.1-15.6-13c-0.5,0.6-1.1,1.1-1.9,1.5c0.6-0.6,1.2-1.1,1.9-1.5c3.4-4.2,0-12.6-5.9-14.2
						c-6.8-1.8-13.6,2-19.6,5.6c3-3.9,2.3-10.2-1.5-13.3c-3.8-3.2-10-2.8-13.4,0.8c1.1-4.4,2.2-8.8,3.4-13.2
						c-4.6-0.5-9.2,0.2-13.4,2c-0.8,0.4-1.6,0.8-2.4,1.1c0.8-0.4,1.6-0.8,2.4-1.1c4.9-2.7,8.8-7,10.9-12.1
						c-7.5-1.4-15.7,0.8-21.4,5.9l-8.4,0.2c-2-3.7-1.9-8.5,0.3-12.1c-3,3.7-7.1,6.5-11.6,8c0.7-4.7-0.2-9.7-2.6-13.9
						c-3.9,3.4-7.8,6.8-11.6,10.1c-2.7-4.2-5.3-8.4-8-12.6c-2.7,3.6-5.5,7.2-8.2,10.7c-2.5-6.8-7.6-12.6-14-15.9
						c-0.1,6.2,1.9,12.4,5.5,17.5c-6-7.2-14.6-12.3-23.8-13.9c3.9,4.7,7.9,9.4,11.8,14.1c-6-5-13.1-8.7-20.6-10.7
						c-2.4,2.6-3,6.5-2,9.9c1.4,1.3,2.4,2.9,3,4.6c-1.4-1.2-2.4-2.9-3-4.6c-2.2-2.1-5.3-3.3-8.4-3c0,5,0,10.1,0,15.1
						c-5.3-5.9-11.5-11-18.4-15c1.1,3.3,2.3,6.6,3.4,10c-9.7-3.4-20.1-4.6-30.3-3.4c3.6,2.2,7.2,4.3,10.7,6.5
						c-7.9,0.2-15.8,0.4-23.7,0.6c2.7,5.4,7.9,9.6,13.7,11.1c-6.3,2.4-13.1,3.4-19.8,2.9c3.1,3.9,6.3,7.9,9.4,11.8
						c-4.7-5.2-10.9-8.9-17.7-10.6c0.8,4.8,4.3,8.9,8.7,10.9c1.6,0.4,3.2,0.8,4.7,1.2c-1.6-0.1-3.2-0.5-4.7-1.2
						c-3.8-0.8-7.6-1.3-11.3-0.4c-5.3,1.3-10.1,6.4-9,11.7c5.2,0.1,10.3,0.1,15.5,0.2c-7.1,1.8-13.5,6.2-17.7,12.2
						c8.5-1.4,16.9-2.8,25.4-4.2c-8.4,4-15.4,11-19.4,19.4c4.5,1.5,9.6,0.9,13.9-1.3c1.4-1.2,2.9-2.4,4.5-3.3
						c-1.3,1.4-2.8,2.5-4.5,3.3c-3.5,3.1-6.3,6.8-8.2,11C920.1,421,925.8,418.8,931.6,419.4z"/>
				</g>
				<path id="XMLID_418_" fill-rule="evenodd" clip-rule="evenodd" fill="#6E9639" d="M1189.8,417.7c-3.8,0.9-7.4-3.1-7.6-7.1
					c-0.2-3.9,1.9-7.6,3.9-10.9c-3.6-2.5-8.2-3.4-12.5-2.8c-0.2,1.5-0.5,3.1-1,4.6c-1,6-5-1-9,0c5,3,1,7,2,10c-4,1-7-1-10-2
					c5,5,1,11,2,16c-4,0-5-4-8-6c4,7,3,22-6,23c-2,0-2-4-6-5c0,4-1,13-6,11c-1,0-4-4-2-7c-4,3-6,12-11,7c-2-1-4-4-3-7c-5,2-9,6-14,5
					c-6-1-4-8-4-13c-5,1-4,10-8,9c-5-1-8-6-8-13c0,5-1,10-4,14c-1.5-1.5-3.5-2.9-4-5.2c-0.1,3.6-0.8,7.6-4,9.2c-4,1-8,0-10-4
					c0,4-3,7-4,10c-9-5-8,6-16,8c0-3,1-8,0-9c-7-3-11,8-18,9c0-5,0-11,0-16c-4,3-4,10-10,12c0-5,0-9,0-14c-1,5-2,15-8,11
					c-4-2,1-9-4-13c0,4-1,13-6,11c-2-1-2-5-2-9c-2,4,0,11-4,13c-7,4-6-7-10-11c-1,6-5,16-12,11c-6-4-1-11-2-17c-5,4-10,12-15,9
					c-4-3,4-13,0-16c-4-4-14,4-18,0c-3-3,8-13,1-13c-5.8-0.6-11.6,1.6-17.1,4.6c-0.7,1.6-1.3,3.2-1.8,4.9c5.8-1.4,11.2-4.6,15.2-9.1
					c-4.6,8.4-9.2,16.7-13.8,25.1c7.5-0.6,14.8-3.3,20.9-7.8c-0.5,5.4-0.9,10.8-1.4,16.2c5.3-1.3,10.6-2.5,16-3.8
					c-6,7.8-12.1,15.5-18.1,23.3c6.6,1.1,13.6-0.3,19.3-4c-4.9,2.7-7.6,8.8-6.2,14.2c5.6-0.2,11.1-3.1,14.4-7.6
					c0.1,5.7,0.1,11.4,0.2,17c5.2,1.6,11.3-1.5,13.1-6.6c0.8,6.4,3.1,12.6,6.8,17.9c5.1-5.4,9-11.9,11.5-18.9
					c2.2,4.9,4.5,9.8,6.7,14.7c4.4-4.6,6.7-11.3,6-17.7c3.3,5.9,6.6,11.7,9.9,17.6c1.9-3.6,3.9-7.1,5.8-10.7
					c3.5,3.8,5.1,9.3,4.2,14.4c4.5-3.4,9.1-6.7,13.6-10.1c0.2,5.3,0.3,10.6,0.5,15.9c5.4-0.5,9.5-6.7,7.8-11.8
					c2.5,3.8,5,7.7,7.5,11.5c3.3-4.5,5.7-9.7,6.9-15.2c3.3,3.1,6.6,6.3,9.8,9.4c2.1-4.9,2.8-10.4,2-15.7c4,3.6,8.9,6.3,14.1,7.6
					c1.9-4.1,1.9-9.1-0.1-13.1c1.6,2.4,4.7,3.7,7.5,3.1c0.9-4.2,0.2-8.7-1.9-12.4c-0.4-0.5-0.8-1.1-1.1-1.7c0.4,0.5,0.8,1.1,1.1,1.7
					c1.6,2.2,3.8,3.9,6.2,4.9c2.6-3.6,2.9-8.7,0.7-12.5c3.7,4,7.4,7.9,11.1,11.9c3.2-3.5,7.4-6.2,11.9-7.6c0.4,4.9,3,9.5,6.8,12.5
					c3.8-2.5,6-7.4,5.2-11.9c1,5,5,9.3,9.9,10.7c3.7-3.8,5.3-9.5,4.1-14.7c0.9,3.9,3.5,7.3,6.9,9.3c4.5-3.7,6.2-10.5,4-15.9
					c2.3,1.9,4.7,3.9,7,5.8c4.9-4.1,5.9-12.1,2.1-17.3c3.6,2.8,9-2.2,8.3-6.7c-0.7-4.5-4.7-7.7-8.4-10.4
					C1175.6,428.8,1183.8,424.2,1189.8,417.7z"/>
			</g>
		</g>
		<path id="XMLID_405_" fill-rule="evenodd" clip-rule="evenodd" fill="#6E9639" d="M1018.6,308.1c0.6-0.3,1.1-0.7,1.6-1
			C1019.7,307.4,1019.2,307.7,1018.6,308.1z"/>
		<g id="XMLID_381_">
			<rect id="XMLID_380_" x="951.8" y="589.5" fill-rule="evenodd" clip-rule="evenodd" fill="#A76E46" width="22" height="144.9"/>
			<rect id="XMLID_383_" x="1166.1" y="589.5" fill-rule="evenodd" clip-rule="evenodd" fill="#A76E46" width="22" height="144.9"/>
			<rect id="XMLID_385_" x="1380.5" y="589.5" fill-rule="evenodd" clip-rule="evenodd" fill="#A76E46" width="22" height="144.9"/>
			
				<rect id="XMLID_324_" x="932.7" y="602.7" fill-rule="evenodd" clip-rule="evenodd" fill="#BE7D50" width="483.1" height="26.4"/>
			
				<rect id="XMLID_382_" x="932.7" y="663.6" fill-rule="evenodd" clip-rule="evenodd" fill="#BE7D50" width="483.1" height="26.4"/>
		</g>
		<rect id="XMLID_320_" y="719" fill-rule="evenodd" clip-rule="evenodd" fill="#D0B280" width="1417" height="261"/>
		<path id="XMLID_400_" fill-rule="evenodd" clip-rule="evenodd" fill="#9CBA4C" d="M1271,905c-26,8-53,7-80-1c-20-6-40,4-60-1
			c0.8-1.2,1.8-1.8,2.8-2c-47.4,0-95.6,0-142.8,0c11,7,25,4,36,12c-66,5-132,9-198,14c6-3,16-5,16-12c-153,6-305-1-458-5
			c-11,0-23,0-34,1c1-6-1-13-6-13c-143.6-3.6-288.1,8.3-427.5,41.6c23,43,34.9,92,33.4,140.8c-0.2,6.6-0.4,13.9,4,18.8
			c4.6,5.2,12.4,5.6,19.3,5.6c545.3,4.1,1088.6-71.5,1633.9-77.5c-6.2-35.7-16.1-70.7-29.6-104.3c-106.2-6-211.6-5.9-317.4-10
			C1264,909,1268,908,1271,905z"/>
		<path id="XMLID_401_" fill-rule="evenodd" clip-rule="evenodd" fill="#B9D252" d="M1243,867.1c-5.3,10-18.9,10.9-30.2,10.6
			C991,870.6,769.1,869,547.3,873c1.5-6,3-12.1,4.5-18.1c-2.8,6-6.4,12.7-12.9,14.4c-4.6,1.2-9.9-2.7-10.7-6.8
			c-1.2,4.1-2.4,8.1-3.6,12.2c-3.8-6.4-7.6-12.7-11.3-19.1c0.2,9.7-5.6,19.3-14.4,23.6c-10.5-2-20.4-6.5-28.8-13.1
			c-21.2,15.5-50.3,11.8-76.4,8.2c-136.9-19.2-276.5-18.8-413.3,1.3l-99.5,9.1c15,16.7,27.9,35.2,38.5,55
			C58.9,906.3,203.4,894.4,347,898c5,0,7,7,6,13c11-1,23-1,34-1c153,4,305,11,458,5c0,7-10,9-16,12c66-5,132-9,198-14
			c-11-8-25-5-36-12c47.3,0,95.5,0,142.8,0c1.6-0.4,3.4,0,5.2,0c-1.7,0-3.4,0-5.2,0c-1.1,0.2-2,0.8-2.8,2c20,5,40-5,60,1
			c27,8,54,9,80,1c-3,3-7,4-8,8c105.9,4,211.3,4,317.4,10c-6.8-16.9-14.4-33.5-22.9-49.6C1452.7,877.7,1347.6,875.6,1243,867.1z"/>
		<g id="XMLID_387_">
			<rect id="XMLID_393_" x="3.1" y="587.5" fill-rule="evenodd" clip-rule="evenodd" fill="#A76E46" width="22.3" height="146.8"/>
			
				<rect id="XMLID_392_" x="220.4" y="587.5" fill-rule="evenodd" clip-rule="evenodd" fill="#A76E46" width="22.3" height="146.8"/>
			
				<rect id="XMLID_391_" x="437.7" y="587.5" fill-rule="evenodd" clip-rule="evenodd" fill="#A76E46" width="22.3" height="146.8"/>
			
				<rect id="XMLID_390_" x="-16.2" y="600.9" fill-rule="evenodd" clip-rule="evenodd" fill="#BE7D50" width="489.6" height="26.8"/>
			
				<rect id="XMLID_389_" x="-16.2" y="662.7" fill-rule="evenodd" clip-rule="evenodd" fill="#BE7D50" width="489.6" height="26.8"/>
		</g>
		<g id="XMLID_321_">
			<path id="XMLID_319_" fill-rule="evenodd" clip-rule="evenodd" fill="#B84B3C" d="M673.8,712.1h161.5V219.7
				c0-34.6-28.3-62.9-62.9-62.9h-35.7c-34.6,0-62.9,28.3-62.9,62.9V712.1z"/>
			<path id="XMLID_318_" fill-rule="evenodd" clip-rule="evenodd" fill="#CF5546" d="M673.8,712.1h129.1V219.7
				c0-34.6-28.3-62.9-62.9-62.9h-3.3c-34.6,0-62.9,28.3-62.9,62.9V712.1z"/>
			<path id="XMLID_317_" fill-rule="evenodd" clip-rule="evenodd" fill="#434345" d="M835.3,284.7v-64.9c0-34.6-28.3-62.9-62.9-62.9
				h-35.7c-34.6,0-62.9,28.3-62.9,62.9v64.9H835.3z"/>
			<path id="XMLID_316_" fill-rule="evenodd" clip-rule="evenodd" fill="#656668" d="M740,156.8h-3.3c-34.6,0-62.9,28.3-62.9,62.9
				v64.9h129.1v-64.9C802.9,185.1,774.6,156.8,740,156.8"/>
			<path id="XMLID_416_" fill-rule="evenodd" clip-rule="evenodd" fill="#881721" d="M835.3,332.2v-3H673.8v3H835.3z M835.3,358v-3
				H673.8v3H835.3z M835.3,383.7v-3H673.8v3H835.3z M835.3,409.5v-3H673.8v3H835.3z M835.3,435.3v-3H673.8v3H835.3z M835.3,461.1v-3
				H673.8v3H835.3z M835.3,486.9v-3H673.8v3H835.3z M835.3,512.7v-3H673.8v3H835.3z M835.3,538.5v-3H673.8v3H835.3z M835.3,564.3v-3
				H673.8v3H835.3z M835.3,590.1v-3H673.8v3H835.3z M835.3,615.9v-3H673.8v3H835.3z M835.3,641.7v-3H673.8v3H835.3z M835.3,667.5v-3
				H673.8v3H835.3z M835.3,693.3v-3H673.8v3H835.3z M835.3,303.4H673.8v3h161.5V303.4z"/>
			<polygon id="XMLID_299_" fill-rule="evenodd" clip-rule="evenodd" fill="#141414" points="791,540.2 577,501.1 362.9,540.2 
				434.2,388.8 577,341.1 719.7,388.8 			"/>
			<polygon id="XMLID_298_" fill-rule="evenodd" clip-rule="evenodd" fill="#CF5546" points="715.1,395.4 577,348.8 438.8,395.4 
				383.3,515.5 383.3,712.1 577,712.1 770.6,712.1 770.6,515.5 			"/>
			<polygon id="XMLID_297_" fill-rule="evenodd" clip-rule="evenodd" fill="#434345" points="434.2,388.8 577,341.1 719.7,388.8 
				791,540.2 805.1,540.2 728.9,378.5 579,328.4 577,327.6 574.9,328.4 425,378.5 348.8,540.2 362.9,540.2 			"/>
			<polygon id="XMLID_296_" fill-rule="evenodd" clip-rule="evenodd" fill="#881721" points="756.3,484.5 754.9,481.5 399,481.5 
				397.6,484.5 			"/>
			<polygon id="XMLID_295_" fill-rule="evenodd" clip-rule="evenodd" fill="#881721" points="737.9,444.6 736.5,441.6 417.5,441.6 
				416.1,444.6 			"/>
			<polygon id="XMLID_294_" fill-rule="evenodd" clip-rule="evenodd" fill="#881721" points="529.6,364.8 624.3,364.8 615.5,361.8 
				538.4,361.8 			"/>
			<rect id="XMLID_293_" x="383.3" y="521.4" fill-rule="evenodd" clip-rule="evenodd" fill="#881721" width="387.3" height="3"/>
			<polygon id="XMLID_292_" fill-rule="evenodd" clip-rule="evenodd" fill="#881721" points="747.1,464.5 745.7,461.6 408.2,461.6 
				406.9,464.5 			"/>
			<polygon id="XMLID_291_" fill-rule="evenodd" clip-rule="evenodd" fill="#881721" points="683.5,384.7 674.7,381.8 479.2,381.8 
				470.4,384.7 			"/>
			<polygon id="XMLID_290_" fill-rule="evenodd" clip-rule="evenodd" fill="#881721" points="728.6,424.6 727.3,421.7 426.7,421.7 
				425.3,424.6 			"/>
			<polygon id="XMLID_289_" fill-rule="evenodd" clip-rule="evenodd" fill="#881721" points="719.4,404.7 718,401.7 435.9,401.7 
				434.5,404.7 			"/>
			<polygon id="XMLID_288_" fill-rule="evenodd" clip-rule="evenodd" fill="#881721" points="765.5,504.5 764.2,501.5 389.8,501.5 
				388.4,504.5 			"/>
			<rect id="XMLID_287_" x="383.3" y="641.2" fill-rule="evenodd" clip-rule="evenodd" fill="#881721" width="387.3" height="3"/>
			<rect id="XMLID_286_" x="383.3" y="661.1" fill-rule="evenodd" clip-rule="evenodd" fill="#881721" width="387.3" height="3"/>
			<rect id="XMLID_285_" x="383.3" y="681.1" fill-rule="evenodd" clip-rule="evenodd" fill="#881721" width="387.3" height="3"/>
			<rect id="XMLID_284_" x="383.3" y="701" fill-rule="evenodd" clip-rule="evenodd" fill="#881721" width="387.3" height="3"/>
			<rect id="XMLID_283_" x="383.3" y="561.3" fill-rule="evenodd" clip-rule="evenodd" fill="#881721" width="387.3" height="3"/>
			<rect id="XMLID_282_" x="383.3" y="581.3" fill-rule="evenodd" clip-rule="evenodd" fill="#881721" width="387.3" height="3"/>
			<rect id="XMLID_281_" x="383.3" y="621.2" fill-rule="evenodd" clip-rule="evenodd" fill="#881721" width="387.3" height="3"/>
			<polygon id="XMLID_280_" fill-rule="evenodd" clip-rule="evenodd" fill="#881721" points="770.6,544.4 770.6,541.4 574.8,541.4 
				383.3,541.4 383.3,544.4 			"/>
			<rect id="XMLID_279_" x="383.3" y="601.3" fill-rule="evenodd" clip-rule="evenodd" fill="#881721" width="387.3" height="3"/>
			
				<rect id="XMLID_278_" x="509.1" y="543.5" fill-rule="evenodd" clip-rule="evenodd" fill="#983C2F" width="138.4" height="168.6"/>
			<path id="XMLID_388_" fill-rule="evenodd" clip-rule="evenodd" fill="#FFFFFF" d="M497.5,551.9L453,626.5l-44.5-74.7H497.5z
				 M497.5,712.1h-89h-3.2h-8.4v-8.4V543.5h112.3v8.4v151.8v8.4h-8.4H497.5z M499.1,703.7h1.7V557.3L456.3,632L499.1,703.7z
				 M413.5,703.7h79.1L453,637.4L413.5,703.7z M405.3,557.3l44.5,74.7L407,703.7h-1.7V557.3z"/>
			<path id="XMLID_384_" fill-rule="evenodd" clip-rule="evenodd" fill="#383938" d="M770.6,524.4v12V524.4z M770.6,521.4v3V521.4z
				 M770.6,515.5L770.6,515.5v5.9V515.5z"/>
			<path id="XMLID_368_" fill-rule="evenodd" clip-rule="evenodd" fill="#A84336" d="M537.4,362.1l39.6-13.3l38.6,13h-77.1
				L537.4,362.1z M674.7,381.8h-88.2l-9.6-3.2l-9.6,3.2h-88.2l50.4-17h94.7L674.7,381.8L674.7,381.8z M718,401.7h-72.3l-50.4-17
				h88.2l-4.5-1.5l36,12.1L718,401.7z M435.4,402.9l3.5-7.5l37.6-12.7l-6.1,2h88.2l-50.4,17h-72.3L435.4,402.9z M449,421.7h-22.3
				l7.9-17h64.8L449,421.7z M727.3,421.7h-22.3l-50.4-17h64.8L727.3,421.7z M431.2,441.6h-13.7l7.9-17h14.9l-1.3,0.5L431.2,441.6z
				 M736.5,441.6h-13.7l-7.6-16.5l-1.3-0.5h14.9L736.5,441.6L736.5,441.6z M746.4,463.1l-0.7-1.5H732l-7.8-17h13.7l-0.3-0.7
				L746.4,463.1z M407.1,464.1l9.5-20.5l-0.5,1h13.7l-7.8,17h-13.7L407.1,464.1z M412.7,481.5H399l7.8-17h13.7L412.7,481.5z
				 M389.1,503l9-19.6l-0.5,1h13.7l-7.9,17h-13.7L389.1,503z M770.6,521.4h-11l-7.9-17h13.7l-1.4-3h-13.7l-7.9-17h13.7l-1.4-3h-13.7
				l-7.8-17h13.7l23.5,50.9V521.4z M770.6,541.4h-1.8l-7.9-17h9.6v12V541.4z M770.6,545.2l-0.4-0.8h0.4V545.2z"/>
			<path id="XMLID_365_" fill-rule="evenodd" clip-rule="evenodd" fill="#6B2029" d="M411.4,484.5h-13.7l0.5-1l0.9-1.9h13.7
				L411.4,484.5z M756.3,484.5h-13.7l-1.4-3h13.7L756.3,484.5z"/>
			<path id="XMLID_362_" fill-rule="evenodd" clip-rule="evenodd" fill="#6B2029" d="M429.8,444.6h-13.7l0.5-1l0.9-2h13.7
				L429.8,444.6z M737.9,444.6h-13.7l-1.4-3h13.7l1,2.3L737.9,444.6z"/>
			<polygon id="XMLID_250_" fill-rule="evenodd" clip-rule="evenodd" fill="#6B2029" points="624.3,364.8 529.6,364.8 537.4,362.1 
				538.4,361.8 615.5,361.8 			"/>
			<polygon id="XMLID_249_" fill-rule="evenodd" clip-rule="evenodd" fill="#6B2029" points="770.6,524.4 770.6,524.4 761,524.4 
				759.6,521.4 770.6,521.4 			"/>
			<path id="XMLID_357_" fill-rule="evenodd" clip-rule="evenodd" fill="#6B2029" d="M420.6,464.5h-13.7l0.2-0.5l1.2-2.5H422
				L420.6,464.5z M747.1,464.5h-13.7l-1.4-3h13.7l0.7,1.5L747.1,464.5z"/>
			<path id="XMLID_354_" fill-rule="evenodd" clip-rule="evenodd" fill="#6B2029" d="M558.6,384.7h-88.2l6.1-2l2.8-0.9h88.2
				L558.6,384.7z M683.5,384.7h-88.2l-8.8-3h88.2l4.3,1.5L683.5,384.7z"/>
			<path id="XMLID_351_" fill-rule="evenodd" clip-rule="evenodd" fill="#6B2029" d="M440.2,424.6h-14.9l1.4-3H449L440.2,424.6z
				 M728.6,424.6h-14.9l-8.8-3h22.3L728.6,424.6L728.6,424.6z"/>
			<path id="XMLID_348_" fill-rule="evenodd" clip-rule="evenodd" fill="#6B2029" d="M499.4,404.7h-64.8l0.8-1.8l0.5-1.2h72.3
				L499.4,404.7z M719.4,404.7h-64.8l-8.8-3H718L719.4,404.7L719.4,404.7z"/>
			<path id="XMLID_344_" fill-rule="evenodd" clip-rule="evenodd" fill="#A84336" d="M394.3,521.4h-11v-5.9l5.1-11h13.7L394.3,521.4
				z M385.1,541.4h-1.8v-17h9.6L385.1,541.4z M383.3,545.2v-0.8h0.4L383.3,545.2z"/>
			<polygon id="XMLID_237_" fill-rule="evenodd" clip-rule="evenodd" fill="#6B2029" points="392.9,524.4 383.3,524.4 383.3,521.4 
				394.3,521.4 			"/>
			<path id="XMLID_340_" fill-rule="evenodd" clip-rule="evenodd" fill="#6B2029" d="M402.1,504.5h-13.7l0.7-1.4l0.7-1.6h13.7
				L402.1,504.5z M765.5,504.5h-13.7l-1.4-3h13.7L765.5,504.5z"/>
			<path id="XMLID_337_" fill-rule="evenodd" clip-rule="evenodd" fill="#6B2029" d="M383.7,544.4h-0.4v-3h1.8L383.7,544.4z
				 M770.6,544.4L770.6,544.4h-0.4l-1.4-3h1.8V544.4z"/>
			<polygon id="XMLID_232_" fill-rule="evenodd" clip-rule="evenodd" fill="#FFFFFF" points="717,393.3 577,346.1 437,393.3 
				380.7,514.9 380.7,712.1 385.9,712.1 385.9,516.1 440.7,397.4 577,351.5 713.2,397.4 768.1,516.1 768.1,712.1 773.2,712.1 
				773.2,514.9 			"/>
			<rect id="XMLID_231_" x="529.2" y="455.3" fill-rule="evenodd" clip-rule="evenodd" fill="#FFFFFF" width="95.4" height="58.5"/>
			<path id="XMLID_329_" fill-rule="evenodd" clip-rule="evenodd" fill="#A84336" d="M527.5,453.5v62.2h98.9v-62.2H527.5z
				 M574.8,511.3h-42.9v-24.5h42.9V511.3z M574.8,482.4h-42.9v-24.5h42.9V482.4z M622.1,511.3h-42.9v-24.5h42.9V511.3z M622.1,482.4
				h-42.9v-24.5h42.9V482.4z"/>
			<path id="XMLID_323_" fill-rule="evenodd" clip-rule="evenodd" fill="#FFFFFF" d="M743.5,551.9L699,626.5l-44.5-74.7H743.5z
				 M743.5,712.1h-89h-3.2h-8.4v-8.4V543.5h112.3v8.4v151.8v8.4h-8.4H743.5z M745,703.7h1.7V557.3L702.2,632L745,703.7z
				 M659.4,703.7h79.1L699,637.4L659.4,703.7z M651.2,557.3l44.5,74.7L653,703.7h-1.7V557.3z"/>
			<rect id="XMLID_220_" x="451.6" y="531.5" fill-rule="evenodd" clip-rule="evenodd" fill="#FFFFFF" width="250.7" height="12"/>
		</g>
		<g id="XMLID_55_">
			<g id="XMLID_359_">
				<path id="XMLID_370_" fill-rule="evenodd" clip-rule="evenodd" fill="#F1CB71" d="M318.4,534.6c33.6-0.2,67.4,0.1,100.6-4.9
					c-32.1-0.4-64.1-2.5-96.2-4.3l2.5,0.9H317L318.4,534.6z"/>
				<path id="XMLID_369_" fill-rule="evenodd" clip-rule="evenodd" fill="#F1CB71" d="M388.4,519.3c26.5,2.7,52.8,1.9,79.2,1.2
					l0.3-3.5l0.2-1.8C441.5,514.5,415.1,517.2,388.4,519.3z"/>
				<path id="XMLID_367_" fill-rule="evenodd" clip-rule="evenodd" fill="#F4E176" d="M419,529.7c-33.2,5-67,4.7-100.6,4.9l0.8,4.8
					h29.8l-29.4,4.8l-0.7,6.3c20.1,0.1,40.1-0.9,60.7-4.4c31.7-5.7,61.9-9.4,92.7-12.8l-0.6-7.1l-21.4-0.4l17.2-3.4l0.1-1.8
					c-26.4,0.7-52.7,1.5-79.2-1.2c26.7-2.1,53.1-4.9,79.7-4.1l1.3-10l-80.6,4.2c0,0-39,1.1-53.1-1.9s-18-4.6-18-4.6l-2.3,19.9
					l7.4,2.6C354.9,527.2,386.9,529.3,419,529.7z"/>
				<path id="XMLID_366_" fill="#F4E176" d="M475.5,566.3l-30.2,5.6l16.3-6.4c-30.6,0.4-61.3,2.3-91.9,3.5
					c34.9-4.8,69.7-9.4,104.8-10.5l-1-7.2c-43.9,3.7-88.1,4.2-132.1,5.1c-7.7,0.2-15.4,0-23-0.1l-0.3,2.7l11.8,5.5l-11.1,5.4
					l-0.3,7.9l-0.5,12.5l26.4-2l-8.8,2.4c46.7-6,93.8-7.1,140.9-5.6L475.5,566.3z"/>
				<path id="XMLID_364_" fill-rule="evenodd" clip-rule="evenodd" fill="#F4E176" d="M380.8,600.4c30.2,1,60.7,2.5,90.1,9.5
					c1.4-3.6,2.7-9.3,2.7-9.3s-13.8-3.5-11.8-3.8c0.3,0,1-0.1,1.8-0.2C436,595.5,408.2,598.2,380.8,600.4z"/>
				<path id="XMLID_363_" fill-rule="evenodd" clip-rule="evenodd" fill="#F1CB71" d="M380.8,600.4c27.5-2.1,55.3-4.9,82.8-3.8
					c4.2-0.6,13.5-1.8,13.5-1.8l-0.5-9.7c-47-1.5-94.2-0.4-140.9,5.6l-9.2,2.5l-7.3,3.8l1.5,16c0,0,61.9-4.5,65.7-4.5
					s80.6,5.2,82.5,4.5c0.6-0.2,1.2-1.4,1.9-3C441.5,602.8,411,601.3,380.8,600.4z"/>
				<path id="XMLID_361_" fill-rule="evenodd" clip-rule="evenodd" fill="#F1CB71" d="M461.6,565.5l13.2-5.2l-0.3-1.8
					c-35.1,1.1-70,5.6-104.8,10.5C400.3,567.8,431,565.9,461.6,565.5z"/>
				<path id="XMLID_360_" fill-rule="evenodd" clip-rule="evenodd" fill="#F1CB71" d="M341.4,556.4c44-0.9,88.2-1.4,132.1-5.1
					l-1-7.1c0,0-9.2,0.8-22.2-1.5c8.4-3.1,22.5-3.3,22.5-3.3l-0.5-6c-30.8,3.4-61,7.1-92.7,12.8c-20.6,3.5-40.6,4.5-60.7,4.4
					l-0.6,5.8C326,556.4,333.7,556.6,341.4,556.4z"/>
			</g>
			<g id="XMLID_371_">
				<path id="XMLID_379_" fill-rule="evenodd" clip-rule="evenodd" fill="#F1CB71" d="M460,534.6c33.6-0.2,67.4,0.1,100.6-4.9
					c-32.1-0.4-64.1-2.5-96.2-4.3l2.5,0.9h-8.4L460,534.6z"/>
				<path id="XMLID_378_" fill-rule="evenodd" clip-rule="evenodd" fill="#F1CB71" d="M530,519.3c26.5,2.7,52.8,1.9,79.2,1.2
					l0.3-3.5l0.2-1.8C583,514.5,556.7,517.2,530,519.3z"/>
				<path id="XMLID_377_" fill-rule="evenodd" clip-rule="evenodd" fill="#F4E176" d="M560.5,529.7c-33.2,5-67,4.7-100.6,4.9
					l0.8,4.8h29.8l-29.4,4.8l-0.7,6.3c20.1,0.1,40.1-0.9,60.7-4.4c31.7-5.7,61.9-9.4,92.7-12.8l-0.6-7.1l-21.4-0.4l17.2-3.4l0.1-1.8
					c-26.4,0.7-52.7,1.5-79.2-1.2c26.7-2.1,53.1-4.9,79.7-4.1l1.3-10l-80.6,4.2c0,0-39,1.1-53.1-1.9s-18-4.6-18-4.6l-2.3,19.9
					l7.4,2.6C496.4,527.2,528.5,529.3,560.5,529.7z"/>
				<path id="XMLID_376_" fill="#F4E176" d="M617.1,566.3l-30.2,5.6l16.3-6.4c-30.6,0.4-61.3,2.3-91.9,3.5
					c34.9-4.8,69.7-9.4,104.8-10.5l-1-7.2c-43.9,3.7-88.1,4.2-132.1,5.1c-7.7,0.2-15.4,0-23-0.1l-0.3,2.7l11.8,5.5l-11.1,5.4
					l-0.3,7.9l-0.5,12.5l26.4-2l-8.8,2.4c46.7-6,93.8-7.1,140.9-5.6L617.1,566.3z"/>
				<path id="XMLID_375_" fill-rule="evenodd" clip-rule="evenodd" fill="#F4E176" d="M522.3,600.4c30.2,1,60.7,2.5,90.1,9.5
					c1.4-3.6,2.7-9.3,2.7-9.3s-13.8-3.5-11.8-3.8c0.3,0,1-0.1,1.8-0.2C577.6,595.5,549.8,598.2,522.3,600.4z"/>
				<path id="XMLID_374_" fill-rule="evenodd" clip-rule="evenodd" fill="#F1CB71" d="M522.3,600.4c27.5-2.1,55.3-4.9,82.8-3.8
					c4.2-0.6,13.5-1.8,13.5-1.8l-0.5-9.7c-47-1.5-94.2-0.4-140.9,5.6l-9.2,2.5l-7.3,3.8l1.5,16c0,0,61.9-4.5,65.7-4.5
					c3.8,0,80.6,5.2,82.5,4.5c0.6-0.2,1.2-1.4,1.9-3C583.1,602.8,552.6,601.3,522.3,600.4z"/>
				<path id="XMLID_373_" fill-rule="evenodd" clip-rule="evenodd" fill="#F1CB71" d="M603.2,565.5l13.2-5.2l-0.3-1.8
					c-35.1,1.1-70,5.6-104.8,10.5C541.9,567.8,572.5,565.9,603.2,565.5z"/>
				<path id="XMLID_372_" fill-rule="evenodd" clip-rule="evenodd" fill="#F1CB71" d="M483,556.4c44-0.9,88.2-1.4,132.1-5.1l-1-7.1
					c0,0-9.2,0.8-22.2-1.5c8.4-3.1,22.5-3.3,22.5-3.3l-0.5-6c-30.8,3.4-61,7.1-92.7,12.8c-20.6,3.5-40.6,4.5-60.7,4.4l-0.6,5.8
					C467.6,556.4,475.2,556.6,483,556.4z"/>
			</g>
			<g id="XMLID_322_">
				<path id="XMLID_330_" fill-rule="evenodd" clip-rule="evenodd" fill="#F1CB71" d="M233,610.6c33.6-0.2,67.4,0.1,100.6-4.9
					c-32.1-0.4-64.1-2.5-96.2-4.3l2.5,0.9h-8.4L233,610.6z"/>
				<path id="XMLID_327_" fill-rule="evenodd" clip-rule="evenodd" fill="#F1CB71" d="M303,595.4c26.5,2.7,52.8,1.9,79.2,1.2
					l0.3-3.5l0.2-1.8C356.1,590.5,329.7,593.3,303,595.4z"/>
				<path id="XMLID_331_" fill-rule="evenodd" clip-rule="evenodd" fill="#F4E176" d="M333.6,605.7c-33.2,5-67,4.7-100.6,4.9
					l0.8,4.8h29.8l-29.4,4.8l-0.7,6.3c20.1,0.1,40.1-0.9,60.7-4.4c31.7-5.7,61.9-9.4,92.7-12.8l-0.6-7.1l-21.4-0.4l17.2-3.4l0.1-1.8
					c-26.4,0.7-52.7,1.5-79.2-1.2c26.7-2.1,53.1-4.9,79.7-4.1l1.3-10l-80.6,4.2c0,0-39,1.1-53.1-1.9c-14.1-3.1-18-4.6-18-4.6
					l-2.3,19.9l7.4,2.6C269.5,603.2,301.6,605.3,333.6,605.7z"/>
				<path id="XMLID_325_" fill="#F4E176" d="M390.2,642.4L360,648l16.3-6.4c-30.6,0.4-61.3,2.3-91.9,3.5
					c34.9-4.8,69.7-9.4,104.8-10.5l-1-7.2c-43.9,3.7-88.1,4.2-132.1,5.1c-7.7,0.2-15.4,0-23-0.1l-0.3,2.7l11.8,5.5l-11.1,5.4
					l-0.3,7.9l-0.5,12.5l26.4-2l-8.8,2.4c46.7-6,93.8-7.1,140.9-5.6L390.2,642.4z"/>
				<path id="XMLID_328_" fill-rule="evenodd" clip-rule="evenodd" fill="#F4E176" d="M295.4,676.4c30.2,1,60.7,2.5,90.1,9.5
					c1.4-3.6,2.7-9.3,2.7-9.3s-13.8-3.5-11.8-3.8c0.3,0,1-0.1,1.8-0.2C350.7,671.5,322.9,674.3,295.4,676.4z"/>
				<path id="XMLID_336_" fill-rule="evenodd" clip-rule="evenodd" fill="#F1CB71" d="M295.4,676.4c27.5-2.1,55.3-4.9,82.8-3.8
					c4.2-0.6,13.5-1.8,13.5-1.8l-0.5-9.7c-47-1.5-94.2-0.4-140.9,5.6l-9.2,2.5l-7.3,3.8l1.5,16c0,0,61.9-4.5,65.7-4.5
					c3.8,0,80.6,5.2,82.5,4.5c0.6-0.2,1.2-1.4,1.9-3C356.1,678.9,325.6,677.4,295.4,676.4z"/>
				<path id="XMLID_334_" fill-rule="evenodd" clip-rule="evenodd" fill="#F1CB71" d="M376.2,641.6l13.2-5.2l-0.3-1.8
					c-35.1,1.1-70,5.6-104.8,10.5C314.9,643.8,345.6,641.9,376.2,641.6z"/>
				<path id="XMLID_333_" fill-rule="evenodd" clip-rule="evenodd" fill="#F1CB71" d="M256,632.5c44-0.9,88.2-1.4,132.1-5.1l-1-7.1
					c0,0-9.2,0.8-22.2-1.5c8.4-3.1,22.5-3.3,22.5-3.3l-0.5-6c-30.8,3.4-61,7.1-92.7,12.8c-20.6,3.5-40.6,4.5-60.7,4.4l-0.6,5.8
					C240.6,632.4,248.3,632.7,256,632.5z"/>
			</g>
			<g id="XMLID_326_">
				<path id="XMLID_345_" fill-rule="evenodd" clip-rule="evenodd" fill="#F1CB71" d="M379,610.6c33.6-0.2,67.4,0.1,100.6-4.9
					c-32.1-0.4-64.1-2.5-96.2-4.3l2.5,0.9h-8.4L379,610.6z"/>
				<path id="XMLID_343_" fill-rule="evenodd" clip-rule="evenodd" fill="#F1CB71" d="M449,595.4c26.5,2.7,52.8,1.9,79.2,1.2
					l0.3-3.5l0.2-1.8C502.1,590.5,475.7,593.3,449,595.4z"/>
				<path id="XMLID_342_" fill-rule="evenodd" clip-rule="evenodd" fill="#F4E176" d="M479.6,605.7c-33.2,5-67,4.7-100.6,4.9
					l0.8,4.8h29.8l-29.4,4.8l-0.7,6.3c20.1,0.1,40.1-0.9,60.7-4.4c31.7-5.7,61.9-9.4,92.7-12.8l-0.6-7.1l-21.4-0.4l17.2-3.4l0.1-1.8
					c-26.4,0.7-52.7,1.5-79.2-1.2c26.7-2.1,53.1-4.9,79.7-4.1l1.3-10l-80.6,4.2c0,0-39,1.1-53.1-1.9s-18-4.6-18-4.6l-2.3,19.9
					l7.4,2.6C415.5,603.2,447.5,605.3,479.6,605.7z"/>
				<path id="XMLID_341_" fill="#F4E176" d="M536.1,642.4l-30.2,5.6l16.3-6.4c-30.6,0.4-61.3,2.3-91.9,3.5
					c34.9-4.8,69.7-9.4,104.8-10.5l-1-7.2c-43.9,3.7-88.1,4.2-132.1,5.1c-7.7,0.2-15.4,0-23-0.1l-0.3,2.7l11.8,5.5l-11.1,5.4
					l-0.3,7.9l-0.5,12.5l26.4-2l-8.8,2.4c46.7-6,93.8-7.1,140.9-5.6L536.1,642.4z"/>
				<path id="XMLID_339_" fill-rule="evenodd" clip-rule="evenodd" fill="#F4E176" d="M441.3,676.4c30.2,1,60.7,2.5,90.1,9.5
					c1.4-3.6,2.7-9.3,2.7-9.3s-13.8-3.5-11.8-3.8c0.3,0,1-0.1,1.8-0.2C496.6,671.5,468.8,674.3,441.3,676.4z"/>
				<path id="XMLID_338_" fill-rule="evenodd" clip-rule="evenodd" fill="#F1CB71" d="M441.3,676.4c27.5-2.1,55.3-4.9,82.8-3.8
					c4.2-0.6,13.5-1.8,13.5-1.8l-0.5-9.7c-47-1.5-94.2-0.4-140.9,5.6l-9.2,2.5l-7.3,3.8l1.5,16c0,0,61.9-4.5,65.7-4.5
					s80.6,5.2,82.5,4.5c0.6-0.2,1.2-1.4,1.9-3C502.1,678.9,471.6,677.4,441.3,676.4z"/>
				<path id="XMLID_335_" fill-rule="evenodd" clip-rule="evenodd" fill="#F1CB71" d="M522.2,641.6l13.2-5.2l-0.3-1.8
					c-35.1,1.1-70,5.6-104.8,10.5C460.9,643.8,491.5,641.9,522.2,641.6z"/>
				<path id="XMLID_332_" fill-rule="evenodd" clip-rule="evenodd" fill="#F1CB71" d="M402,632.5c44-0.9,88.2-1.4,132.1-5.1l-1-7.1
					c0,0-9.2,0.8-22.2-1.5c8.4-3.1,22.5-3.3,22.5-3.3l-0.5-6c-30.8,3.4-61,7.1-92.7,12.8c-20.6,3.5-40.6,4.5-60.7,4.4l-0.6,5.8
					C386.6,632.4,394.2,632.7,402,632.5z"/>
			</g>
			<g id="XMLID_346_">
				<path id="XMLID_358_" fill-rule="evenodd" clip-rule="evenodd" fill="#F1CB71" d="M524.9,610.6c33.6-0.2,67.4,0.1,100.6-4.9
					c-32.1-0.4-64.1-2.5-96.2-4.3l2.5,0.9h-8.4L524.9,610.6z"/>
				<path id="XMLID_356_" fill-rule="evenodd" clip-rule="evenodd" fill="#F1CB71" d="M594.9,595.4c26.5,2.7,52.8,1.9,79.2,1.2
					l0.3-3.5l0.2-1.8C648,590.5,621.6,593.3,594.9,595.4z"/>
				<path id="XMLID_355_" fill-rule="evenodd" clip-rule="evenodd" fill="#F4E176" d="M625.5,605.7c-33.2,5-67,4.7-100.6,4.9
					l0.8,4.8h29.8l-29.4,4.8l-0.7,6.3c20.1,0.1,40.1-0.9,60.7-4.4c31.7-5.7,61.9-9.4,92.7-12.8l-0.6-7.1l-21.4-0.4l17.2-3.4l0.1-1.8
					c-26.4,0.7-52.7,1.5-79.2-1.2c26.7-2.1,53.1-4.9,79.7-4.1l1.3-10l-80.6,4.2c0,0-39,1.1-53.1-1.9c-14.1-3.1-18-4.6-18-4.6
					l-2.3,19.9l7.4,2.6C561.4,603.2,593.5,605.3,625.5,605.7z"/>
				<path id="XMLID_353_" fill="#F4E176" d="M682.1,642.4l-30.2,5.6l16.3-6.4c-30.6,0.4-61.3,2.3-91.9,3.5
					c34.9-4.8,69.7-9.4,104.8-10.5l-1-7.2c-43.9,3.7-88.1,4.2-132.1,5.1c-7.7,0.2-15.4,0-23-0.1l-0.3,2.7l11.8,5.5l-11.1,5.4
					l-0.3,7.9l-0.5,12.5l26.4-2l-8.8,2.4c46.7-6,93.8-7.1,140.9-5.6L682.1,642.4z"/>
				<path id="XMLID_352_" fill-rule="evenodd" clip-rule="evenodd" fill="#F4E176" d="M587.3,676.4c30.2,1,60.7,2.5,90.1,9.5
					c1.4-3.6,2.7-9.3,2.7-9.3s-13.8-3.5-11.8-3.8c0.3,0,1-0.1,1.8-0.2C642.6,671.5,614.8,674.3,587.3,676.4z"/>
				<path id="XMLID_350_" fill-rule="evenodd" clip-rule="evenodd" fill="#F1CB71" d="M587.3,676.4c27.5-2.1,55.3-4.9,82.8-3.8
					c4.2-0.6,13.5-1.8,13.5-1.8l-0.5-9.7c-47-1.5-94.2-0.4-140.9,5.6l-9.2,2.5l-7.3,3.8l1.5,16c0,0,61.9-4.5,65.7-4.5
					c3.8,0,80.6,5.2,82.5,4.5c0.6-0.2,1.2-1.4,1.9-3C648,678.9,617.5,677.4,587.3,676.4z"/>
				<path id="XMLID_349_" fill-rule="evenodd" clip-rule="evenodd" fill="#F1CB71" d="M668.1,641.6l13.2-5.2l-0.3-1.8
					c-35.1,1.1-70,5.6-104.8,10.5C606.8,643.8,637.5,641.9,668.1,641.6z"/>
				<path id="XMLID_347_" fill-rule="evenodd" clip-rule="evenodd" fill="#F1CB71" d="M547.9,632.5c44-0.9,88.2-1.4,132.1-5.1
					l-1-7.1c0,0-9.2,0.8-22.2-1.5c8.4-3.1,22.5-3.3,22.5-3.3l-0.5-6c-30.8,3.4-61,7.1-92.7,12.8c-20.6,3.5-40.6,4.5-60.7,4.4
					l-0.6,5.8C532.5,632.4,540.2,632.7,547.9,632.5z"/>
			</g>
			<path id="XMLID_209_" fill-rule="evenodd" clip-rule="evenodd" fill="#FCCD6A" d="M535,645.6h136.3v-34H535V645.6z M535,600.4
				h136.3v-34H535V600.4z M385.9,600.4h136.3v-34H385.9V600.4z M385.9,645.6h136.3v-34H385.9V645.6z M236.9,645.6h136.3v-34H236.9
				V645.6z M236.9,600.4h136.3v-34H236.9V600.4z M385.9,653.8h136.3v36H385.9V653.8z M535,653.8h136.3v36H535V653.8z M236.9,653.8
				h136.3v36H236.9V653.8z M220.2,533.8h16.7v20.2h434.4v-20.2h19v136.7v28.4h-470v-28.4V533.8z"/>
			<polygon id="XMLID_208_" fill-rule="evenodd" clip-rule="evenodd" fill="#D99C58" points="682.6,533.8 690.3,533.8 690.3,670.5 
				690.3,698.9 682.6,698.9 			"/>
			<polygon id="XMLID_207_" fill-rule="evenodd" clip-rule="evenodd" fill="#D99C58" points="220.2,533.8 226.5,533.8 226.5,698.9 
				220.2,698.9 220.2,670.5 			"/>
			<rect id="XMLID_206_" x="678.2" y="719.3" fill-rule="evenodd" clip-rule="evenodd" fill="#272727" width="70.4" height="14"/>
			<path id="XMLID_205_" fill-rule="evenodd" clip-rule="evenodd" fill="#424143" d="M668.3,742.1h11.2c3.1,0,5.6-2.5,5.6-5.6V717
				c0-3.1-2.5-5.6-5.6-5.6h-11.2c-3.1,0-5.6,2.5-5.6,5.6v19.5C662.7,739.6,665.2,742.1,668.3,742.1"/>
			
				<rect id="XMLID_204_" x="237.9" y="698.9" fill-rule="evenodd" clip-rule="evenodd" fill="#414142" width="434.7" height="47.9"/>
			<path id="XMLID_203_" fill-rule="evenodd" clip-rule="evenodd" d="M589.2,708c31.9,0,57.7,25.8,57.7,57.7s-25.8,57.7-57.7,57.7
				c-31.9,0-57.7-25.8-57.7-57.7S557.4,708,589.2,708"/>
			<path id="XMLID_184_" fill-rule="evenodd" clip-rule="evenodd" fill="#414142" d="M565.9,712.9c2.4-1.1,4.9-2,7.5-2.7l2,8
				c0.2,0.7-0.1,1.5-0.8,1.7l-3.5,1.3c-0.7,0.3-1.4-0.1-1.7-0.8L565.9,712.9z M549.2,724.1c1.9-1.8,4-3.5,6.1-5.1l4.7,6.9
				c0.4,0.6,0.4,1.4-0.2,1.9l-2.9,2.4c-0.6,0.5-1.4,0.4-1.9-0.2L549.2,724.1z M537.4,740.3c1.2-2.4,2.5-4.7,4-6.9l6.7,4.9
				c0.6,0.4,0.9,1.2,0.5,1.8l-1.9,3.3c-0.4,0.6-1.2,0.8-1.8,0.5L537.4,740.3z M533.2,779.5c-0.6-2.6-1.1-5.2-1.4-7.9l8.3-0.6
				c0.7-0.1,1.4,0.4,1.6,1.1l0.7,3.7c0.1,0.7-0.4,1.4-1.1,1.6L533.2,779.5z M541.3,797.9c-1.5-2.2-2.8-4.5-4-6.9l7.6-3.4
				c0.7-0.3,1.5-0.1,1.8,0.5l1.9,3.3c0.4,0.6,0.1,1.4-0.5,1.8L541.3,797.9z M555.2,812.3c-2.1-1.6-4.2-3.3-6.1-5.1l5.9-5.8
				c0.5-0.5,1.3-0.6,1.9-0.2l2.9,2.4c0.6,0.5,0.6,1.3,0.2,1.9L555.2,812.3z M573.2,821.1c-2.6-0.7-5.1-1.7-7.5-2.7l3.6-7.5
				c0.3-0.7,1-1.1,1.7-0.8l3.5,1.3c0.7,0.3,1,1,0.8,1.7L573.2,821.1z M593.1,823.2c-1.3,0.1-2.6,0.1-3.9,0.1c-1.4,0-2.7-0.1-4.1-0.1
				l0.8-8.2c0.1-0.7,0.6-1.3,1.3-1.3l3.8,0c0.7,0,1.3,0.6,1.3,1.3L593.1,823.2z M612.6,818.5c-2.4,1.1-4.9,2-7.5,2.7l-2-8
				c-0.2-0.7,0.1-1.5,0.8-1.7l3.5-1.3c0.7-0.3,1.4,0.1,1.7,0.8L612.6,818.5z M629.2,807.3c-1.9,1.8-4,3.6-6.1,5.1l-4.7-6.9
				c-0.4-0.6-0.4-1.4,0.2-1.9l2.9-2.4c0.6-0.5,1.4-0.4,1.9,0.2L629.2,807.3z M641,791.1c-1.2,2.4-2.5,4.7-4,6.9l-6.7-4.9
				c-0.6-0.4-0.9-1.2-0.5-1.8l1.9-3.3c0.4-0.6,1.2-0.8,1.8-0.5L641,791.1z M646.6,771.8c-0.3,2.7-0.8,5.3-1.4,7.8l-8-2.3
				c-0.7-0.2-1.2-0.8-1.1-1.6l0.7-3.7c0.1-0.7,0.8-1.2,1.6-1.1L646.6,771.8z M645.2,751.9c0.6,2.6,1.1,5.2,1.4,7.9l-8.3,0.6
				c-0.7,0.1-1.4-0.4-1.6-1.1l-0.7-3.7c-0.1-0.7,0.4-1.4,1.1-1.6L645.2,751.9z M637.1,733.5c1.5,2.2,2.8,4.5,4,6.9l-7.6,3.4
				c-0.7,0.3-1.5,0.1-1.8-0.5l-1.9-3.3c-0.4-0.6-0.1-1.4,0.5-1.8L637.1,733.5z M623.2,719.1c2.1,1.6,4.2,3.3,6.1,5.1l-5.9,5.8
				c-0.5,0.5-1.3,0.6-1.9,0.2l-2.9-2.4c-0.6-0.5-0.6-1.3-0.2-1.9L623.2,719.1z M605.3,710.3c2.6,0.7,5.1,1.7,7.5,2.7l-3.6,7.5
				c-0.3,0.7-1,1.1-1.7,0.8l-3.5-1.3c-0.7-0.3-1-1-0.8-1.7L605.3,710.3z M589.2,708c1.4,0,2.7,0.1,4.1,0.1l-0.8,8.2
				c-0.1,0.7-0.6,1.3-1.3,1.3h-3.8c-0.7,0-1.3-0.6-1.3-1.3l-0.7-8.3C586.6,708,587.9,708,589.2,708z M533.3,751.7l8,2.3
				c0.7,0.2,1.2,0.8,1.1,1.6l-0.7,3.7c-0.1,0.7-0.8,1.2-1.6,1.1l-8.2-0.8C532.2,756.9,532.6,754.2,533.3,751.7z"/>
			<path id="XMLID_183_" fill-rule="evenodd" clip-rule="evenodd" fill="#414142" d="M589.2,725.6c22.1,0,40.1,18,40.1,40.1
				c0,22.1-18,40.1-40.1,40.1c-22.1,0-40.1-18-40.1-40.1C549.1,743.5,567.1,725.6,589.2,725.6"/>
			<path id="XMLID_182_" fill-rule="evenodd" clip-rule="evenodd" fill="#595A5C" d="M589.2,733.8c17.6,0,31.9,14.3,31.9,31.9
				c0,17.6-14.3,31.9-31.9,31.9c-17.6,0-31.9-14.3-31.9-31.9C557.3,748.1,571.6,733.8,589.2,733.8"/>
			<path id="XMLID_181_" fill-rule="evenodd" clip-rule="evenodd" fill="#595A5C" d="M589.2,737.1c15.8,0,28.5,12.8,28.5,28.5
				c0,15.8-12.8,28.5-28.5,28.5c-15.8,0-28.5-12.8-28.5-28.5C560.7,749.9,573.5,737.1,589.2,737.1"/>
			<path id="XMLID_180_" fill-rule="evenodd" clip-rule="evenodd" fill="#939598" d="M589.2,742.8c12.6,0,22.9,10.3,22.9,22.9
				s-10.3,22.9-22.9,22.9c-12.6,0-22.9-10.3-22.9-22.9S576.6,742.8,589.2,742.8"/>
			<path id="XMLID_179_" fill-rule="evenodd" clip-rule="evenodd" fill="#595A5C" d="M589.2,752.1c7.5,0,13.6,6.1,13.6,13.6
				c0,7.5-6.1,13.6-13.6,13.6c-7.5,0-13.6-6.1-13.6-13.6C575.7,758.2,581.7,752.1,589.2,752.1"/>
			<path id="XMLID_178_" fill-rule="evenodd" clip-rule="evenodd" fill="#414142" d="M589.2,759.4c3.5,0,6.3,2.8,6.3,6.3
				s-2.8,6.3-6.3,6.3c-3.5,0-6.3-2.8-6.3-6.3S585.8,759.4,589.2,759.4"/>
			<path id="XMLID_177_" fill-rule="evenodd" clip-rule="evenodd" fill="#414142" d="M589.2,745.6c0.9,0,1.7,0.8,1.7,1.7
				c0,0.9-0.8,1.7-1.7,1.7c-0.9,0-1.7-0.8-1.7-1.7C587.6,746.4,588.3,745.6,589.2,745.6"/>
			<path id="XMLID_176_" fill-rule="evenodd" clip-rule="evenodd" fill="#414142" d="M576.3,750.3c0.7-0.6,1.8-0.5,2.4,0.2
				c0.6,0.7,0.5,1.8-0.2,2.4c-0.7,0.6-1.8,0.5-2.4-0.2C575.5,752,575.6,750.9,576.3,750.3"/>
			<path id="XMLID_175_" fill-rule="evenodd" clip-rule="evenodd" fill="#414142" d="M569.5,762.2c0.2-0.9,1-1.5,1.9-1.4
				c0.9,0.2,1.5,1,1.4,1.9c-0.2,0.9-1,1.5-1.9,1.4C569.9,764,569.3,763.1,569.5,762.2"/>
			<path id="XMLID_174_" fill-rule="evenodd" clip-rule="evenodd" fill="#414142" d="M571.9,775.7c-0.5-0.8-0.2-1.8,0.6-2.3
				c0.8-0.5,1.8-0.2,2.3,0.6c0.5,0.8,0.2,1.8-0.6,2.3C573.3,776.8,572.3,776.5,571.9,775.7"/>
			<path id="XMLID_173_" fill-rule="evenodd" clip-rule="evenodd" fill="#414142" d="M582.4,784.5c-0.9-0.3-1.3-1.3-1-2.1
				c0.3-0.9,1.3-1.3,2.1-1c0.9,0.3,1.3,1.3,1,2.1C584.2,784.4,583.2,784.9,582.4,784.5"/>
			<path id="XMLID_172_" fill-rule="evenodd" clip-rule="evenodd" fill="#414142" d="M596.1,784.5c-0.9,0.3-1.8-0.1-2.1-1
				c-0.3-0.9,0.1-1.8,1-2.1c0.9-0.3,1.8,0.1,2.1,1C597.4,783.3,597,784.2,596.1,784.5"/>
			<path id="XMLID_171_" fill-rule="evenodd" clip-rule="evenodd" fill="#414142" d="M606.6,775.7c-0.5,0.8-1.5,1.1-2.3,0.6
				c-0.8-0.5-1.1-1.5-0.6-2.3c0.5-0.8,1.5-1.1,2.3-0.6C606.8,773.9,607.1,774.9,606.6,775.7"/>
			<path id="XMLID_170_" fill-rule="evenodd" clip-rule="evenodd" fill="#414142" d="M609,762.2c0.2,0.9-0.4,1.8-1.4,1.9
				c-0.9,0.2-1.8-0.4-1.9-1.4c-0.2-0.9,0.4-1.8,1.4-1.9C608,760.7,608.8,761.3,609,762.2"/>
			<path id="XMLID_169_" fill-rule="evenodd" clip-rule="evenodd" fill="#414142" d="M602.1,750.3c0.7,0.6,0.8,1.7,0.2,2.4
				c-0.6,0.7-1.7,0.8-2.4,0.2c-0.7-0.6-0.8-1.7-0.2-2.4C600.4,749.8,601.4,749.7,602.1,750.3"/>
			<rect id="XMLID_168_" x="236.9" y="562.3" fill-rule="evenodd" clip-rule="evenodd" fill="#D99C58" width="434.4" height="4.1"/>
			<rect id="XMLID_167_" x="236.9" y="607.5" fill-rule="evenodd" clip-rule="evenodd" fill="#D99C58" width="434.4" height="4.1"/>
			<polygon id="XMLID_166_" fill-rule="evenodd" clip-rule="evenodd" fill="#414142" points="1283.8,669.8 1282.3,720 1011.6,749.3 
				773.7,749.3 757.9,749.4 762.5,683 726.3,683 733.7,649.6 752.9,621.6 767.8,604.5 798.8,580.3 846.5,568.3 1005.1,568.3 
				1005.1,605.2 1274.6,605.2 			"/>
			<path id="XMLID_165_" fill-rule="evenodd" clip-rule="evenodd" fill="#4C9C48" d="M846.5,559.6l9.9-99.9
				c0.7-7.2,5.1-12.1,14.8-12.1h177.2c10.4,0,16.9,5,16.9,16v232.6h-69l-8-44.8l-18.5-34.2l-26.2-19.8L907.9,571l-44.7-2.7
				l-21.6,1.7L846.5,559.6z"/>
			<polygon id="XMLID_164_" fill-rule="evenodd" clip-rule="evenodd" fill="#A7C9DB" points="874.9,461.9 865.8,551.5 943,568.5 
				1004.2,654 1049.1,654 1049.1,461.9 			"/>
			<path id="XMLID_163_" fill-rule="evenodd" clip-rule="evenodd" fill="#4C9C48" d="M1056.6,563l1.8,66.6v66.6l66,0.1l12.2-26.1
				l26.2-24.1l31.6-11l33.5,0.8l44.1,22.5l11.9,11.3c2.4-8.8,13.8-66.8,2.5-72C1286.3,597.7,1233.2,566.1,1056.6,563"/>
			<path id="XMLID_162_" fill-rule="evenodd" clip-rule="evenodd" fill="#D0EADF" d="M922.2,564l9.2-102.1L922.2,564z"/>
			<polygon id="XMLID_161_" fill-rule="evenodd" clip-rule="evenodd" fill="#150C1A" points="1026.8,654 1023.5,654 1022.7,648.2 
				1026.8,648.2 1026.8,523.8 1026.8,573.5 			"/>
			<rect id="XMLID_160_" x="999.1" y="665.5" fill-rule="evenodd" clip-rule="evenodd" fill="#56AC50" width="6.2" height="114.4"/>
			
				<rect id="XMLID_159_" x="1047.7" y="665.5" fill-rule="evenodd" clip-rule="evenodd" fill="#56AC50" width="6.2" height="114.4"/>
			<rect id="XMLID_158_" x="1002.2" y="767.2" fill-rule="evenodd" clip-rule="evenodd" fill="#56AC50" width="48.6" height="8.8"/>
			<rect id="XMLID_157_" x="1002.2" y="734.6" fill-rule="evenodd" clip-rule="evenodd" fill="#56AC50" width="48.6" height="8.8"/>
			<rect id="XMLID_156_" x="1002.2" y="702" fill-rule="evenodd" clip-rule="evenodd" fill="#56AC50" width="48.6" height="8.8"/>
			<rect id="XMLID_155_" x="1002.2" y="669.3" fill-rule="evenodd" clip-rule="evenodd" fill="#56AC50" width="48.6" height="8.8"/>
			<path id="XMLID_152_" fill-rule="evenodd" clip-rule="evenodd" fill="#252122" d="M861.5,779.9c-40.8,0-73.8-33-73.8-73.8
				c0-40.8,33-73.8,73.8-73.8c40.8,0,73.8,33,73.8,73.8C935.3,746.9,902.1,779.9,861.5,779.9 M861.5,590.3
				c-64.1,0-115.8,51.9-115.8,115.8c0,63.9,51.9,115.8,115.8,115.8c64.1,0,115.8-51.9,115.8-115.8
				C977.3,642.2,925.4,590.3,861.5,590.3z"/>
			<path id="XMLID_149_" fill-rule="evenodd" clip-rule="evenodd" d="M861.5,776.5c-38.9,0-70.4-31.5-70.4-70.4
				c0-38.9,31.5-70.4,70.4-70.4c38.9,0,70.4,31.5,70.4,70.4C931.7,745,900.3,776.5,861.5,776.5 M984.4,709.3c0-1.1,0.1-2.2,0.1-3.2
				c0-3.5-0.3-7-0.5-10.4l-18.1-2.3c-0.9-7.4-2.6-14.6-4.9-21.5l15.3-9.9c-1.6-4.3-3.5-8.5-5.5-12.6l-17.6,4.9
				c-3.6-6.4-7.8-12.4-12.7-18l10.3-15c-3.1-3.4-6.5-6.5-10-9.5l-14.5,11.2c-5.8-4.5-12-8.4-18.6-11.6l3.8-17.8
				c-4.2-1.9-8.4-3.5-12.8-5l-9.1,15.8c-7-1.9-14.2-3.1-21.8-3.6l-3.4-17.8c-1.1,0-2.2-0.1-3.2-0.1c-3.5,0-7,0.3-10.4,0.5l-2.3,18.1
				c-7.4,0.9-14.6,2.6-21.5,4.9l-9.9-15.3c-4.3,1.6-8.5,3.5-12.6,5.5l4.9,17.6c-6.5,3.6-12.4,7.8-18,12.7l-15-10.3
				c-3.4,3.1-6.5,6.5-9.5,10l11.2,14.5c-4.5,5.8-8.4,12-11.6,18.6l-17.8-3.8c-1.9,4.2-3.5,8.4-4.9,12.8l15.8,9.1
				c-1.9,7-3.1,14.2-3.6,21.8l-17.8,3.4c0,1.1-0.1,2.2-0.1,3.2c0,3.5,0.3,7,0.5,10.4l18.1,2.3c0.9,7.4,2.6,14.6,4.9,21.5l-15.3,9.9
				c1.6,4.3,3.5,8.5,5.5,12.6l17.6-4.9c3.6,6.4,7.8,12.4,12.7,18l-10.3,15c3.1,3.4,6.5,6.5,10,9.5l14.5-11.2
				c5.8,4.5,12,8.4,18.6,11.6l-3.8,17.8c4.2,1.9,8.4,3.5,12.8,5l9.1-15.8c7,1.9,14.2,3.1,21.8,3.6l3.4,17.8c1.1,0,2.2,0.1,3.2,0.1
				c3.5,0,7-0.3,10.4-0.5l2.3-18.1c7.4-0.9,14.6-2.6,21.5-4.9l9.9,15.3c4.3-1.6,8.5-3.5,12.6-5.5l-4.9-17.6
				c6.5-3.6,12.4-7.8,18-12.7l15,10.3c3.4-3.1,6.5-6.5,9.5-10l-11.2-14.5c4.5-5.8,8.4-12,11.6-18.6l17.8,3.8
				c1.9-4.2,3.5-8.4,4.9-12.8l-15.8-9.1c1.9-7,3.1-14.2,3.6-21.6L984.4,709.3z"/>
			<path id="XMLID_148_" fill-rule="evenodd" clip-rule="evenodd" fill="#414142" d="M861.3,617.7c48.9,0,88.5,39.6,88.5,88.5
				c0,48.9-39.6,88.5-88.5,88.5c-48.9,0-88.5-39.6-88.5-88.5C772.9,657.3,812.5,617.7,861.3,617.7"/>
			<path id="XMLID_147_" fill-rule="evenodd" clip-rule="evenodd" fill="#595A5C" d="M861.3,635.8c38.9,0,70.4,31.5,70.4,70.4
				s-31.5,70.4-70.4,70.4S791,745,791,706.2S822.5,635.8,861.3,635.8"/>
			<path id="XMLID_146_" fill-rule="evenodd" clip-rule="evenodd" fill="#FFD36A" d="M861.3,643.2c34.8,0,63,28.2,63,63
				c0,34.8-28.2,63-63,63c-34.8,0-63-28.2-63-63C798.4,671.4,826.6,643.2,861.3,643.2"/>
			<path id="XMLID_145_" fill-rule="evenodd" clip-rule="evenodd" fill="#EFBB4C" d="M861.3,655.6c27.9,0,50.5,22.6,50.5,50.5
				c0,27.9-22.6,50.5-50.5,50.5c-27.9,0-50.5-22.6-50.5-50.5C810.8,678.3,833.4,655.6,861.3,655.6"/>
			<path id="XMLID_144_" fill-rule="evenodd" clip-rule="evenodd" fill="#FFD36A" d="M861.3,676.3c16.5,0,29.9,13.4,29.9,29.9
				c0,16.5-13.4,29.9-29.9,29.9c-16.5,0-29.9-13.4-29.9-29.9C831.4,689.7,844.8,676.3,861.3,676.3"/>
			<path id="XMLID_143_" fill-rule="evenodd" clip-rule="evenodd" fill="#FFEAA4" d="M861.3,692.3c7.6,0,13.8,6.2,13.8,13.8
				c0,7.6-6.2,13.8-13.8,13.8c-7.6,0-13.8-6.2-13.8-13.8C847.5,698.5,853.7,692.3,861.3,692.3"/>
			<path id="XMLID_142_" fill-rule="evenodd" clip-rule="evenodd" fill="#FFD36A" d="M861.3,661.9c2,0,3.7,1.7,3.7,3.7
				c0,2-1.7,3.7-3.7,3.7c-2,0-3.7-1.7-3.7-3.7C857.6,663.6,859.3,661.9,861.3,661.9"/>
			<path id="XMLID_141_" fill-rule="evenodd" clip-rule="evenodd" fill="#FFD36A" d="M832.9,672.3c1.6-1.3,3.9-1.1,5.2,0.5
				c1.3,1.6,1.1,3.9-0.5,5.2c-1.6,1.3-3.9,1.1-5.2-0.5C831.1,675.9,831.3,673.6,832.9,672.3"/>
			<path id="XMLID_140_" fill-rule="evenodd" clip-rule="evenodd" fill="#FFD36A" d="M817.8,698.5c0.4-2,2.3-3.4,4.3-3
				c2,0.4,3.4,2.3,3,4.3c-0.4,2-2.3,3.4-4.3,3C818.7,702.4,817.4,700.5,817.8,698.5"/>
			<path id="XMLID_139_" fill-rule="evenodd" clip-rule="evenodd" fill="#FFD36A" d="M823,728.3c-1-1.8-0.4-4,1.4-5.1
				c1.8-1,4-0.4,5.1,1.4c1,1.8,0.4,4-1.4,5.1C826.3,730.7,824,730.1,823,728.3"/>
			<path id="XMLID_138_" fill-rule="evenodd" clip-rule="evenodd" fill="#FFD36A" d="M846.2,747.8c-1.9-0.7-2.9-2.8-2.2-4.7
				c0.7-1.9,2.8-2.9,4.7-2.2c1.9,0.7,2.9,2.8,2.2,4.7C850.2,747.5,848.1,748.4,846.2,747.8"/>
			<path id="XMLID_137_" fill-rule="evenodd" clip-rule="evenodd" fill="#FFD36A" d="M876.5,747.8c-1.9,0.7-4-0.3-4.7-2.2
				c-0.7-1.9,0.3-4,2.2-4.7c1.9-0.7,4,0.3,4.7,2.2C879.4,744.9,878.4,747.1,876.5,747.8"/>
			<path id="XMLID_136_" fill-rule="evenodd" clip-rule="evenodd" fill="#FFD36A" d="M899.7,728.3c-1,1.8-3.3,2.4-5.1,1.4
				c-1.8-1-2.4-3.3-1.4-5.1c1-1.8,3.3-2.4,5.1-1.4C900.1,724.3,900.7,726.5,899.7,728.3"/>
			<path id="XMLID_135_" fill-rule="evenodd" clip-rule="evenodd" fill="#FFD36A" d="M904.9,698.5c0.4,2-1,3.9-3,4.3
				c-2,0.4-3.9-1-4.3-3c-0.4-2,1-3.9,3-4.3C902.6,695.1,904.6,696.5,904.9,698.5"/>
			<path id="XMLID_134_" fill-rule="evenodd" clip-rule="evenodd" fill="#FFD36A" d="M889.8,672.3c1.6,1.3,1.8,3.6,0.5,5.2
				c-1.3,1.6-3.6,1.8-5.2,0.5c-1.6-1.3-1.8-3.6-0.5-5.2C885.9,671.2,888.2,671,889.8,672.3"/>
			<path id="XMLID_133_" fill-rule="evenodd" clip-rule="evenodd" fill="#7BBF71" d="M741.9,631.7c4.4-7.9,9.6-15.3,15.5-22.2
				c5.9-6.9,12.6-13.1,19.8-18.7c14.4-11.2,31.3-19.3,49.1-23.9c8.9-2.3,18.1-3.6,27.3-4.1c9.2-0.4,18.4,0.1,27.5,1.4
				c18.2,2.8,35.9,9.3,51.5,19c15.6,9.8,29.2,22.5,39.6,37.6c10.5,15,17.8,32,21.4,49.7c3.6,17.7,3.5,36-0.4,53.3
				c1.4-17.7-0.1-35.4-5-52c-4.7-16.7-12.7-32.3-23.2-45.8c-10.5-13.5-23.4-25.1-38.1-33.7c-14.6-8.6-30.9-14.4-47.6-17
				c-16.8-2.6-34-1.9-50.5,1.9c-16.6,3.7-32.3,11-46.4,20.7c-14,9.8-26.3,22.3-35.9,36.8c-9.7,14.4-16.4,30.8-20.4,48.1
				C727.7,665,733.2,647.5,741.9,631.7"/>
			<path id="XMLID_132_" fill-rule="evenodd" clip-rule="evenodd" fill="#414142" d="M1068.8,452.9h-215c-1.8,0-3.2-1.5-3.2-3.2
				v-3.5c0-1.8,1.5-3.2,3.2-3.2h215c1.8,0,3.2,1.5,3.2,3.2v3.5C1072,451.5,1070.6,452.9,1068.8,452.9"/>
			<polygon id="XMLID_131_" fill-rule="evenodd" clip-rule="evenodd" fill="#CAE0ED" points="955.1,476.1 929,565.5 876.9,554 
				903.8,461.9 951.9,461.9 			"/>
			<path id="XMLID_130_" fill-rule="evenodd" clip-rule="evenodd" fill="#CAE0ED" d="M1049.1,493.7l-46.2,158h-0.4l-54.2-75.6
				l33.4-114.2h63.3c0.6,1.4,1.1,2.9,1.5,4.4l2.6,11.6V493.7z"/>
			<path id="XMLID_126_" fill-rule="evenodd" clip-rule="evenodd" fill="#414142" d="M936.6,467.7h108.2l0,105.8v74.8h-37.6
				l-59.5-83.1c-0.8-1.2-2.1-2-3.5-2.3l-15.8-3.5L936.6,467.7z M874.9,467.7h8.8H925l-8,89.2l-44.9-9.9l8-79.3 M872.7,461.7
				l-3.6-0.4l-9.1,89.6c-0.3,2.9,1.7,5.6,4.5,6.3l75,16.5l60,83.7c1.1,1.5,2.9,2.4,4.7,2.4h46.4c1.5,0,3-0.6,4.1-1.7
				c1.1-1.1,1.7-2.6,1.7-4.1v-48.8v-25.9v-11.6v-100v-0.8V465v-8.9h-5.8h0H874.9c-3,0-5.5,2.3-5.8,5.2L872.7,461.7z"/>
			
				<rect id="XMLID_125_" x="1077.3" y="586.3" fill-rule="evenodd" clip-rule="evenodd" fill="#56AC50" width="118.5" height="9.8"/>
			
				<rect id="XMLID_124_" x="1077.3" y="593.2" fill-rule="evenodd" clip-rule="evenodd" fill="#397F39" width="118.5" height="2.9"/>
			
				<rect id="XMLID_123_" x="1077.3" y="600.6" fill-rule="evenodd" clip-rule="evenodd" fill="#56AC50" width="118.5" height="9.8"/>
			
				<rect id="XMLID_122_" x="1077.3" y="607.5" fill-rule="evenodd" clip-rule="evenodd" fill="#397F39" width="118.5" height="2.9"/>
			
				<rect id="XMLID_121_" x="1077.3" y="614.9" fill-rule="evenodd" clip-rule="evenodd" fill="#56AC50" width="118.5" height="9.8"/>
			
				<rect id="XMLID_120_" x="1077.3" y="621.8" fill-rule="evenodd" clip-rule="evenodd" fill="#397F39" width="118.5" height="2.9"/>
			<polygon id="XMLID_119_" fill-rule="evenodd" clip-rule="evenodd" fill="#56AC50" points="1077.3,629.1 1195.9,629.1 
				1195.9,635.3 1194.3,635.2 1183.7,638.9 1077.3,638.9 			"/>
			<polygon id="XMLID_118_" fill-rule="evenodd" clip-rule="evenodd" fill="#397F39" points="1077.3,636 1192,636 1183.7,638.9 
				1077.3,638.9 			"/>
			<polygon id="XMLID_117_" fill-rule="evenodd" clip-rule="evenodd" fill="#56AC50" points="1077.3,643.4 1170.7,643.4 
				1162.7,646.2 1155.1,653.2 1077.3,653.2 			"/>
			<polygon id="XMLID_116_" fill-rule="evenodd" clip-rule="evenodd" fill="#397F39" points="1077.3,650.3 1158.2,650.3 
				1155.1,653.2 1077.3,653.2 			"/>
			<path id="XMLID_113_" fill-rule="evenodd" clip-rule="evenodd" fill="#252122" d="M1212.4,793c-30,0-54.2-24.2-54.2-54.2
				c0-30,24.2-54.2,54.2-54.2c30,0,54.2,24.2,54.2,54.2C1266.6,768.8,1242.3,793,1212.4,793 M1212.4,653.6
				c-47.1,0-85.1,38.1-85.1,85.1c0,47,38.1,85.1,85.1,85.1c47.1,0,85.1-38.1,85.1-85.1C1297.5,691.8,1259.4,653.6,1212.4,653.6z"/>
			<path id="XMLID_110_" fill-rule="evenodd" clip-rule="evenodd" d="M1212.4,790.5c-28.6,0-51.8-23.1-51.8-51.8
				c0-28.6,23.1-51.8,51.8-51.8c28.6,0,51.8,23.1,51.8,51.8C1264,767.4,1240.9,790.5,1212.4,790.5 M1302.8,741.2
				c0-0.8,0.1-1.6,0.1-2.4c0-2.6-0.2-5.2-0.4-7.6l-13.3-1.7c-0.7-5.5-1.9-10.7-3.6-15.8l11.2-7.3c-1.2-3.2-2.6-6.3-4.1-9.2
				l-12.9,3.6c-2.7-4.7-5.8-9.1-9.3-13.2l7.5-11c-2.3-2.5-4.8-4.8-7.4-7l-10.6,8.2c-4.3-3.3-8.8-6.2-13.7-8.5l2.8-13.1
				c-3.1-1.4-6.2-2.6-9.4-3.7l-6.7,11.6c-5.2-1.4-10.4-2.3-16-2.7l-2.5-13.1c-0.8,0-1.6-0.1-2.4-0.1c-2.6,0-5.2,0.2-7.6,0.4
				l-1.7,13.3c-5.5,0.7-10.7,1.9-15.8,3.6l-7.3-11.2c-3.2,1.2-6.3,2.6-9.2,4.1l3.6,12.9c-4.8,2.7-9.1,5.8-13.2,9.3l-11-7.5
				c-2.5,2.3-4.8,4.8-7,7.4l8.2,10.6c-3.3,4.3-6.2,8.8-8.5,13.7l-13.1-2.8c-1.4,3.1-2.6,6.2-3.6,9.4l11.6,6.7
				c-1.4,5.2-2.3,10.4-2.7,16l-13.1,2.5c0,0.8-0.1,1.6-0.1,2.4c0,2.6,0.2,5.2,0.4,7.6l13.3,1.7c0.7,5.5,1.9,10.7,3.6,15.8l-11.2,7.3
				c1.2,3.2,2.6,6.3,4.1,9.2l12.9-3.6c2.7,4.7,5.8,9.1,9.3,13.2l-7.5,11c2.3,2.5,4.8,4.8,7.4,7l10.6-8.2c4.3,3.3,8.8,6.2,13.7,8.5
				l-2.8,13.1c3.1,1.4,6.2,2.6,9.4,3.7l6.7-11.6c5.2,1.4,10.4,2.3,16,2.7l2.5,13.1c0.8,0,1.6,0.1,2.4,0.1c2.6,0,5.2-0.2,7.6-0.4
				l1.7-13.3c5.5-0.7,10.7-1.9,15.8-3.6l7.3,11.2c3.2-1.2,6.3-2.6,9.2-4.1l-3.6-12.9c4.8-2.7,9.1-5.8,13.2-9.3l11,7.5
				c2.5-2.3,4.8-4.8,7-7.4l-8.2-10.6c3.3-4.3,6.2-8.8,8.5-13.7l13.1,2.8c1.4-3.1,2.6-6.2,3.6-9.4l-11.6-6.7
				c1.4-5.2,2.3-10.4,2.7-15.9L1302.8,741.2z"/>
			<path id="XMLID_109_" fill-rule="evenodd" clip-rule="evenodd" fill="#414142" d="M1212.3,673.8c35.9,0,65,29.1,65,65
				c0,35.9-29.1,65-65,65s-65-29.1-65-65C1147.3,702.9,1176.4,673.8,1212.3,673.8"/>
			<path id="XMLID_108_" fill-rule="evenodd" clip-rule="evenodd" fill="#595A5C" d="M1212.3,687.1c28.6,0,51.7,23.2,51.7,51.7
				c0,28.6-23.2,51.7-51.7,51.7c-28.6,0-51.7-23.2-51.7-51.7C1160.6,710.3,1183.7,687.1,1212.3,687.1"/>
			<path id="XMLID_107_" fill-rule="evenodd" clip-rule="evenodd" fill="#FFD36A" d="M1212.3,692.5c25.6,0,46.3,20.7,46.3,46.3
				c0,25.6-20.7,46.3-46.3,46.3s-46.3-20.7-46.3-46.3C1166,713.3,1186.7,692.5,1212.3,692.5"/>
			<path id="XMLID_106_" fill-rule="evenodd" clip-rule="evenodd" fill="#EFBB4C" d="M1212.3,701.7c20.5,0,37.1,16.6,37.1,37.1
				c0,20.5-16.6,37.1-37.1,37.1c-20.5,0-37.1-16.6-37.1-37.1C1175.2,718.3,1191.8,701.7,1212.3,701.7"/>
			<path id="XMLID_105_" fill-rule="evenodd" clip-rule="evenodd" fill="#FFD36A" d="M1212.3,716.9c12.1,0,22,9.8,22,22
				c0,12.1-9.8,22-22,22c-12.1,0-22-9.8-22-22C1190.3,726.7,1200.2,716.9,1212.3,716.9"/>
			<path id="XMLID_104_" fill-rule="evenodd" clip-rule="evenodd" fill="#FFEAA4" d="M1212.3,728.7c5.6,0,10.2,4.6,10.2,10.2
				c0,5.6-4.6,10.2-10.2,10.2c-5.6,0-10.2-4.6-10.2-10.2C1202.1,733.2,1206.7,728.7,1212.3,728.7"/>
			<path id="XMLID_103_" fill-rule="evenodd" clip-rule="evenodd" fill="#FFD36A" d="M1212.3,706.3c1.5,0,2.7,1.2,2.7,2.7
				c0,1.5-1.2,2.7-2.7,2.7c-1.5,0-2.7-1.2-2.7-2.7C1209.6,707.5,1210.8,706.3,1212.3,706.3"/>
			<path id="XMLID_102_" fill-rule="evenodd" clip-rule="evenodd" fill="#FFD36A" d="M1191.4,713.9c1.2-1,2.9-0.8,3.8,0.3
				c1,1.2,0.8,2.9-0.3,3.8c-1.1,1-2.9,0.8-3.8-0.3C1190.1,716.6,1190.2,714.9,1191.4,713.9"/>
			<path id="XMLID_101_" fill-rule="evenodd" clip-rule="evenodd" fill="#FFD36A" d="M1180.3,733.2c0.3-1.5,1.7-2.5,3.1-2.2
				c1.5,0.3,2.5,1.7,2.2,3.1c-0.3,1.5-1.7,2.5-3.1,2.2C1181,736.1,1180,734.7,1180.3,733.2"/>
			<path id="XMLID_100_" fill-rule="evenodd" clip-rule="evenodd" fill="#FFD36A" d="M1184.1,755.1c-0.8-1.3-0.3-3,1-3.7
				c1.3-0.8,3-0.3,3.7,1s0.3,3-1,3.7C1186.5,756.8,1184.9,756.4,1184.1,755.1"/>
			<path id="XMLID_99_" fill-rule="evenodd" clip-rule="evenodd" fill="#FFD36A" d="M1201.2,769.4c-1.4-0.5-2.1-2.1-1.6-3.5
				c0.5-1.4,2.1-2.1,3.5-1.6c1.4,0.5,2.1,2.1,1.6,3.5C1204.1,769.2,1202.6,769.9,1201.2,769.4"/>
			<path id="XMLID_98_" fill-rule="evenodd" clip-rule="evenodd" fill="#FFD36A" d="M1223.4,769.4c-1.4,0.5-3-0.2-3.5-1.6
				c-0.5-1.4,0.2-3,1.6-3.5c1.4-0.5,3,0.2,3.5,1.6C1225.6,767.3,1224.8,768.9,1223.4,769.4"/>
			<path id="XMLID_96_" fill-rule="evenodd" clip-rule="evenodd" fill="#FFD36A" d="M1240.5,755.1c-0.8,1.3-2.4,1.7-3.7,1
				c-1.3-0.8-1.7-2.4-1-3.7c0.8-1.3,2.4-1.7,3.7-1C1240.8,752.1,1241.2,753.8,1240.5,755.1"/>
			<path id="XMLID_95_" fill-rule="evenodd" clip-rule="evenodd" fill="#FFD36A" d="M1244.3,733.2c0.3,1.5-0.7,2.9-2.2,3.1
				c-1.5,0.3-2.9-0.7-3.1-2.2c-0.3-1.5,0.7-2.9,2.2-3.1C1242.7,730.7,1244.1,731.7,1244.3,733.2"/>
			<path id="XMLID_94_" fill-rule="evenodd" clip-rule="evenodd" fill="#FFD36A" d="M1233.2,713.9c1.2,1,1.3,2.7,0.3,3.8
				c-1,1.2-2.7,1.3-3.8,0.3c-1.1-1-1.3-2.7-0.3-3.8C1230.3,713.1,1232.1,712.9,1233.2,713.9"/>
			<path id="XMLID_93_" fill-rule="evenodd" clip-rule="evenodd" fill="#7BBF71" d="M1288.7,677.5c-3-5.3-6.5-10.3-10.4-15
				c-4-4.6-8.5-8.8-13.3-12.6c-9.7-7.5-21.1-12.9-33-16.1c-6-1.5-12.1-2.4-18.3-2.8c-6.2-0.3-12.4,0-18.5,1
				c-12.2,1.9-24.1,6.2-34.6,12.8c-10.5,6.6-19.7,15.1-26.6,25.3c-7.1,10-12,21.5-14.4,33.4c-2.4,11.9-2.4,24.2,0.3,35.8
				c-1-11.9,0.1-23.8,3.3-35c3.2-11.2,8.6-21.7,15.6-30.8c7.1-9.1,15.7-16.9,25.6-22.6c9.8-5.8,20.7-9.7,32-11.4
				c11.3-1.7,22.8-1.3,34,1.3c11.1,2.5,21.7,7.4,31.2,13.9c9.4,6.6,17.7,15,24.1,24.7c6.5,9.7,11.1,20.7,13.7,32.3
				C1298.2,699.9,1294.5,688.1,1288.7,677.5"/>
			<rect id="XMLID_92_" x="236.9" y="652.5" fill-rule="evenodd" clip-rule="evenodd" fill="#D99C58" width="434.4" height="4.1"/>
			<rect id="XMLID_91_" x="236.9" y="685.8" fill-rule="evenodd" clip-rule="evenodd" fill="#D99C58" width="434.4" height="4.1"/>
			<path id="XMLID_90_" fill-rule="evenodd" clip-rule="evenodd" d="M316.2,708c31.9,0,57.7,25.8,57.7,57.7s-25.8,57.7-57.7,57.7
				c-31.9,0-57.7-25.8-57.7-57.7S284.4,708,316.2,708"/>
			<path id="XMLID_71_" fill-rule="evenodd" clip-rule="evenodd" fill="#414142" d="M292.9,712.9c2.4-1.1,4.9-2,7.5-2.7l2,8
				c0.2,0.7-0.1,1.5-0.8,1.7l-3.5,1.3c-0.7,0.3-1.4-0.1-1.7-0.8L292.9,712.9z M276.3,724.1c1.9-1.8,4-3.5,6.1-5.1l4.7,6.9
				c0.4,0.6,0.4,1.4-0.2,1.9l-2.9,2.4c-0.6,0.5-1.4,0.4-1.9-0.2L276.3,724.1z M264.4,740.3c1.2-2.4,2.5-4.7,4-6.9l6.7,4.9
				c0.6,0.4,0.9,1.2,0.5,1.8l-1.9,3.3c-0.4,0.6-1.2,0.8-1.8,0.5L264.4,740.3z M260.2,779.5c-0.6-2.6-1.1-5.2-1.4-7.9l8.3-0.6
				c0.7-0.1,1.4,0.4,1.6,1.1l0.7,3.7c0.1,0.7-0.4,1.4-1.1,1.6L260.2,779.5z M268.3,797.9c-1.5-2.2-2.8-4.5-4-6.9l7.6-3.4
				c0.7-0.3,1.5-0.1,1.8,0.5l1.9,3.3c0.4,0.6,0.1,1.4-0.5,1.8L268.3,797.9z M282.2,812.3c-2.1-1.6-4.2-3.3-6.1-5.1l5.9-5.8
				c0.5-0.5,1.3-0.6,1.9-0.2l2.9,2.4c0.6,0.5,0.6,1.3,0.2,1.9L282.2,812.3z M300.2,821.1c-2.6-0.7-5.1-1.7-7.5-2.7l3.6-7.5
				c0.3-0.7,1-1.1,1.7-0.8l3.5,1.3c0.7,0.3,1,1,0.8,1.7L300.2,821.1z M320.1,823.2c-1.3,0.1-2.6,0.1-3.9,0.1c-1.4,0-2.7-0.1-4.1-0.1
				l0.8-8.2c0.1-0.7,0.6-1.3,1.3-1.3l3.8,0c0.7,0,1.3,0.6,1.3,1.3L320.1,823.2z M339.6,818.5c-2.4,1.1-4.9,2-7.5,2.7l-2-8
				c-0.2-0.7,0.1-1.5,0.8-1.7l3.5-1.3c0.7-0.3,1.4,0.1,1.7,0.8L339.6,818.5z M356.2,807.3c-1.9,1.8-4,3.6-6.1,5.1l-4.7-6.9
				c-0.4-0.6-0.4-1.4,0.2-1.9l2.9-2.4c0.6-0.5,1.4-0.4,1.9,0.2L356.2,807.3z M368.1,791.1c-1.2,2.4-2.5,4.7-4,6.9l-6.7-4.9
				c-0.6-0.4-0.9-1.2-0.5-1.8l1.9-3.3c0.4-0.6,1.2-0.8,1.8-0.5L368.1,791.1z M373.6,771.8c-0.3,2.7-0.8,5.3-1.4,7.8l-8-2.3
				c-0.7-0.2-1.2-0.8-1.1-1.6l0.7-3.7c0.1-0.7,0.8-1.2,1.6-1.1L373.6,771.8z M372.3,751.9c0.6,2.6,1.1,5.2,1.4,7.9l-8.3,0.6
				c-0.7,0.1-1.4-0.4-1.6-1.1l-0.7-3.7c-0.1-0.7,0.4-1.4,1.1-1.6L372.3,751.9z M364.1,733.5c1.5,2.2,2.8,4.5,4,6.9l-7.6,3.4
				c-0.7,0.3-1.5,0.1-1.8-0.5l-1.9-3.3c-0.4-0.6-0.1-1.4,0.5-1.8L364.1,733.5z M350.3,719.1c2.1,1.6,4.2,3.3,6.1,5.1l-5.9,5.8
				c-0.5,0.5-1.3,0.6-1.9,0.2l-2.9-2.4c-0.6-0.5-0.6-1.3-0.2-1.9L350.3,719.1z M332.3,710.3c2.6,0.7,5.1,1.7,7.5,2.7l-3.6,7.5
				c-0.3,0.7-1,1.1-1.7,0.8l-3.5-1.3c-0.7-0.3-1-1-0.8-1.7L332.3,710.3z M316.2,708c1.4,0,2.7,0.1,4.1,0.1l-0.8,8.2
				c-0.1,0.7-0.6,1.3-1.3,1.3h-3.8c-0.7,0-1.3-0.6-1.3-1.3l-0.7-8.3C313.6,708,314.9,708,316.2,708z M260.3,751.7l8,2.3
				c0.7,0.2,1.2,0.8,1.1,1.6l-0.7,3.7c-0.1,0.7-0.8,1.2-1.6,1.1l-8.2-0.8C259.2,756.9,259.6,754.2,260.3,751.7z"/>
			<path id="XMLID_70_" fill-rule="evenodd" clip-rule="evenodd" fill="#414142" d="M316.2,725.6c22.1,0,40.1,18,40.1,40.1
				c0,22.1-18,40.1-40.1,40.1c-22.1,0-40.1-18-40.1-40.1C276.1,743.5,294.1,725.6,316.2,725.6"/>
			<path id="XMLID_69_" fill-rule="evenodd" clip-rule="evenodd" fill="#595A5C" d="M316.2,733.8c17.6,0,31.9,14.3,31.9,31.9
				c0,17.6-14.3,31.9-31.9,31.9c-17.6,0-31.9-14.3-31.9-31.9C284.4,748.1,298.6,733.8,316.2,733.8"/>
			<path id="XMLID_68_" fill-rule="evenodd" clip-rule="evenodd" fill="#595A5C" d="M316.2,737.1c15.8,0,28.5,12.8,28.5,28.5
				c0,15.8-12.8,28.5-28.5,28.5s-28.5-12.8-28.5-28.5C287.7,749.9,300.5,737.1,316.2,737.1"/>
			<path id="XMLID_67_" fill-rule="evenodd" clip-rule="evenodd" fill="#939598" d="M316.2,742.8c12.6,0,22.9,10.3,22.9,22.9
				s-10.3,22.9-22.9,22.9c-12.6,0-22.9-10.3-22.9-22.9S303.6,742.8,316.2,742.8"/>
			<path id="XMLID_66_" fill-rule="evenodd" clip-rule="evenodd" fill="#595A5C" d="M316.2,752.1c7.5,0,13.6,6.1,13.6,13.6
				c0,7.5-6.1,13.6-13.6,13.6s-13.6-6.1-13.6-13.6C302.7,758.2,308.8,752.1,316.2,752.1"/>
			<path id="XMLID_65_" fill-rule="evenodd" clip-rule="evenodd" fill="#414142" d="M316.2,759.4c3.5,0,6.3,2.8,6.3,6.3
				s-2.8,6.3-6.3,6.3c-3.5,0-6.3-2.8-6.3-6.3S312.8,759.4,316.2,759.4"/>
			<path id="XMLID_64_" fill-rule="evenodd" clip-rule="evenodd" fill="#414142" d="M316.2,745.6c0.9,0,1.7,0.8,1.7,1.7
				c0,0.9-0.8,1.7-1.7,1.7s-1.7-0.8-1.7-1.7C314.6,746.4,315.3,745.6,316.2,745.6"/>
			<path id="XMLID_63_" fill-rule="evenodd" clip-rule="evenodd" fill="#414142" d="M303.4,750.3c0.7-0.6,1.8-0.5,2.4,0.2
				c0.6,0.7,0.5,1.8-0.2,2.4c-0.7,0.6-1.8,0.5-2.4-0.2C302.5,752,302.6,750.9,303.4,750.3"/>
			<path id="XMLID_62_" fill-rule="evenodd" clip-rule="evenodd" fill="#414142" d="M296.5,762.2c0.2-0.9,1-1.5,1.9-1.4
				c0.9,0.2,1.5,1,1.4,1.9c-0.2,0.9-1,1.5-1.9,1.4C296.9,764,296.3,763.1,296.5,762.2"/>
			<path id="XMLID_61_" fill-rule="evenodd" clip-rule="evenodd" fill="#414142" d="M298.9,775.7c-0.5-0.8-0.2-1.8,0.6-2.3
				c0.8-0.5,1.8-0.2,2.3,0.6c0.5,0.8,0.2,1.8-0.6,2.3C300.4,776.8,299.3,776.5,298.9,775.7"/>
			<path id="XMLID_60_" fill-rule="evenodd" clip-rule="evenodd" fill="#414142" d="M309.4,784.5c-0.9-0.3-1.3-1.3-1-2.1
				c0.3-0.9,1.3-1.3,2.1-1c0.9,0.3,1.3,1.3,1,2.1C311.2,784.4,310.3,784.9,309.4,784.5"/>
			<path id="XMLID_59_" fill-rule="evenodd" clip-rule="evenodd" fill="#414142" d="M323.1,784.5c-0.9,0.3-1.8-0.1-2.1-1
				c-0.3-0.9,0.1-1.8,1-2.1c0.9-0.3,1.8,0.1,2.1,1C324.4,783.3,324,784.2,323.1,784.5"/>
			<path id="XMLID_58_" fill-rule="evenodd" clip-rule="evenodd" fill="#414142" d="M333.6,775.7c-0.5,0.8-1.5,1.1-2.3,0.6
				c-0.8-0.5-1.1-1.5-0.6-2.3c0.5-0.8,1.5-1.1,2.3-0.6C333.8,773.9,334.1,774.9,333.6,775.7"/>
			<path id="XMLID_57_" fill-rule="evenodd" clip-rule="evenodd" fill="#414142" d="M336,762.2c0.2,0.9-0.4,1.8-1.4,1.9
				c-0.9,0.2-1.8-0.4-1.9-1.4c-0.2-0.9,0.4-1.8,1.4-1.9C335,760.7,335.8,761.3,336,762.2"/>
			<path id="XMLID_56_" fill-rule="evenodd" clip-rule="evenodd" fill="#414142" d="M329.1,750.3c0.7,0.6,0.8,1.7,0.2,2.4
				c-0.6,0.7-1.7,0.8-2.4,0.2c-0.7-0.6-0.8-1.7-0.2-2.4C327.4,749.8,328.4,749.7,329.1,750.3"/>
		</g>
		<g id="XMLID_1_">
			<path id="XMLID_54_" fill-rule="evenodd" clip-rule="evenodd" fill="#FEDDB9" d="M405.8,635.9c0,0,49.9,70.2,45.7,87.3
				c-4.1,17.5-76.5,91.2-76.5,91.2s-1,20.3,3.8,28.3c6-11.4,12.1,4.4,12.1,5.4c0,3.5-4.8,20-8.3,22.9c-3.2,2.9-36.5,4.8-36.5,4.8
				s-27-45.4-26-50.5c1-5.1,82.3-108,82.3-108l-27.6-39.4L405.8,635.9z"/>
			<path id="XMLID_53_" fill-rule="evenodd" clip-rule="evenodd" fill="#FEDDB9" d="M77.1,635.9c0,0-49.9,70.2-45.7,87.3
				c4.1,17.5,76.5,91.2,76.5,91.2s1,20.3-3.8,28.3C98,831.2,92,847.1,92,848c0,3.5,4.8,20,8.3,22.9c3.2,2.9,36.5,4.8,36.5,4.8
				s27-45.4,26-50.5c-1-5.1-82.3-108-82.3-108l27.6-39.4L77.1,635.9z"/>
			<path id="XMLID_52_" fill-rule="evenodd" clip-rule="evenodd" fill="#9F8675" d="M218.4,540.9c-20,14.6-52.1,11.4-62.3,16.2
				c-10.2,4.8-82,58.8-91.6,65.1c1.1,19,22.6,49.3,54.1,73.7c13-4.8,38.4-28.3,38.4-28.3c0,17.8-7.9,142.3,6,153.1
				c4.4,3.5,18.7,8.9,66.7,11.8c48,2.9,106.1-5.1,112.7-19.7c6.7-14.6,2.2-142.3,7.9-140.1c5.7,2.2,24.8,21.3,31.4,15.6
				c6.7-5.7,49.2-39.1,46.7-42.2c-2.9-3.2-67.3-86.1-78.4-89.9c-11.4-3.8-56.9-1.3-63.8-10.8c0,0,2.9,13-2.9,21.9
				c-5.7,8.6-40.3,13.7-57.5,5.4C209.2,564.7,218.4,540.9,218.4,540.9"/>
			<path id="XMLID_51_" fill-rule="evenodd" clip-rule="evenodd" fill="#8C7263" d="M250.5,588.5c25.1,0,45.4-13,45.4-28.9
				s-20.3-28.9-45.4-28.9c-25.1,0-45.4,13-45.4,28.9S225.4,588.5,250.5,588.5"/>
			<path id="XMLID_50_" fill-rule="evenodd" clip-rule="evenodd" fill="#432817" d="M349.6,787.3c1,0.6,34.3,22.9,34.3,22.9
				s-7.3,13.3-8.3,13.3c-0.6,0-33-21.6-33-21.6L349.6,787.3z"/>
			<path id="XMLID_49_" fill-rule="evenodd" clip-rule="evenodd" fill="#3E3D41" d="M348.6,778.5c4.1,1.6,6.4,6.4,5.1,10.8
				l-4.4,12.1c-1.6,4.1-6.4,6.4-10.8,5.1c-4.1-1.6-6.4-6.4-5.1-10.8l4.4-12.1C339.4,779.1,344.2,776.9,348.6,778.5"/>
			<path id="XMLID_48_" fill-rule="evenodd" clip-rule="evenodd" fill="#FCC296" d="M223.5,496.7c0,7.6-1,40.7-6.7,44.8
				c0,0-11.1,24.8,6,33c17.2,8.3,55.9,2.5,61.6-6c5.7-8.9,3.2-21.6,3.2-21.6c-7-9.5-8.9-48.3-8.9-48.3L223.5,496.7z"/>
			<path id="XMLID_47_" fill-rule="evenodd" clip-rule="evenodd" fill="#FEDDB9" d="M344.4,383.8c-11.6,0-21.6,10.9-22.4,24.3
				c-0.8,13.4,7.9,24.3,19.5,24.3c11.6,0,21.6-10.9,22.4-24.3C364.7,394.7,356,383.8,344.4,383.8"/>
			<path id="XMLID_46_" fill-rule="evenodd" clip-rule="evenodd" fill="#FEDDB9" d="M155.3,383.8c11.6,0,21.6,10.9,22.4,24.3
				c0.8,13.4-7.9,24.3-19.5,24.3c-11.6,0-21.6-10.9-22.4-24.3C135,394.7,143.7,383.8,155.3,383.8"/>
			<path id="XMLID_45_" fill-rule="evenodd" clip-rule="evenodd" fill="#FEDDB9" d="M249.9,257c55.1,0,96.7,58.3,96.7,136.7
				c0,78.5-42.3,161.5-97.4,161.5c-55.1,0-89.8-78-89.8-156.4C159.4,320.3,194.8,257,249.9,257"/>
			<path id="XMLID_44_" fill-rule="evenodd" clip-rule="evenodd" fill="#FCC296" d="M331.8,318.9c4.8,10.7,8.5,22.6,11,35.3
				c-59.4-4-119.1-4.3-179.1-1c2.4-12.3,5.8-23.8,10.1-34.3H331.8z"/>
			<path id="XMLID_97_" fill-rule="evenodd" clip-rule="evenodd" fill="#412412" d="M345.6,428.5c-7,27.8-31.8,68.6-31.8,68.6
				c-8-17.4-26.1-25.4-26.1-25.4l5.7-2.3c-17.8-13.1-36.7-2.9-40.7-0.5c-4-2.4-22.9-12.6-40.7,0.5l5.7,2.3c0,0-18.1,8-26.1,25.4
				c0,0-24.7-40.8-31.8-68.6c0,0-3,36.8,5,75.9c7.9,38.5,87.6,59.5,87.8,59.5c0.3,0,79.9-21,87.8-59.5
				C348.6,465.3,345.6,428.5,345.6,428.5 M295.5,504.1c-0.7,1-18.7,16.4-29.4,17.1c-10.7,0.7-8.7-15-8.7-15h-4.7H248
				c0,0,2,15.7-8.7,15c-10.7-0.7-28.8-16.1-29.4-17.1c-0.7-1,4.6-18.6,21.4-27.4c0,0,7,8.7,21.4,8.7c14.4,0,21.4-8.7,21.4-8.7
				C290.9,485.6,296.2,503.1,295.5,504.1z"/>
			<path id="XMLID_41_" fill-rule="evenodd" clip-rule="evenodd" fill="#412412" d="M180.2,329.3c0.8,0.2-21.2,34.4-23.5,66.4
				c0,0-11.1-49.5-8.4-71.8L180.2,329.3z"/>
			<path id="XMLID_40_" fill-rule="evenodd" clip-rule="evenodd" fill="#412412" d="M315.1,329.6c0,0,25.4,35.8,24.8,70.1
				c0,0,11.8-52.2,8.9-75.8L315.1,329.6z"/>
			<path id="XMLID_39_" fill-rule="evenodd" clip-rule="evenodd" fill="#412412" d="M227.8,389.2c0,0-3-1.3-7.7-2.7
				c-2.3-0.6-5.1-1.2-8-1.8c-2.9-0.5-6.1-0.6-9.1-0.5c-1.5,0.3-3.1,0.6-4.6,0.9c-1.6,0.4-3.2,0.5-4.6,0.8c-2.7,0.7-5.3,0.9-7.7,1
				c-2.4,0.3-4.5,0.4-6,0.3c-1.5,0.1-2.4,0-2.4,0l-0.3-0.7c0,0,2.5-2.7,7.1-5c2.4-1.1,5.4-2.1,8.7-2.9c1.6-0.1,3.1-0.1,4.8-0.1
				c1.7,0,3.4,0,5.2,0.1c3.5,0.4,6.9,1.2,10,2.2c3,1,5.7,2.3,8,3.4c4.4,2.3,7.1,4.3,7.1,4.3L227.8,389.2z"/>
			<path id="XMLID_38_" fill-rule="evenodd" clip-rule="evenodd" fill="#412412" d="M272.8,389.2c0,0,3-1.3,7.7-2.7
				c2.3-0.6,5.1-1.2,8-1.8c2.9-0.5,6.1-0.6,9.1-0.5c1.5,0.3,3.1,0.6,4.6,0.9c1.6,0.4,3.2,0.5,4.6,0.8c2.7,0.7,5.3,0.9,7.7,1
				c2.4,0.3,4.5,0.4,6,0.3c1.5,0.1,2.4,0,2.4,0l0.3-0.7c0,0-2.5-2.7-7.1-5c-2.4-1.1-5.4-2.1-8.7-2.9c-1.6-0.1-3.1-0.1-4.8-0.1
				c-1.7,0-3.4,0-5.2,0.1c-3.5,0.4-6.9,1.2-10,2.2c-3,1-5.7,2.3-8,3.4c-4.4,2.3-7.1,4.3-7.1,4.3L272.8,389.2z"/>
			<path id="XMLID_37_" fill-rule="evenodd" clip-rule="evenodd" fill="#414142" d="M294.5,416.6c6.2,0,11.4-5.2,11.4-11.4
				c0-6.2-5.2-11.4-11.4-11.4c-6.2,0-11.4,5.2-11.4,11.4C283.1,411.4,288.3,416.6,294.5,416.6"/>
			<path id="XMLID_36_" fill-rule="evenodd" clip-rule="evenodd" fill="#FFFFFF" d="M304.3,402.1c0-2.9-2.3-5.2-5.2-5.2
				c-2.9,0-5.2,2.3-5.2,5.2c0,2.9,2.3,5.2,5.2,5.2C302,407.3,304.3,405,304.3,402.1"/>
			<path id="XMLID_35_" fill-rule="evenodd" clip-rule="evenodd" fill="#414142" d="M201.6,416.6c6.2,0,11.4-5.2,11.4-11.4
				c0-6.2-5.2-11.4-11.4-11.4c-6.2,0-11.4,5.2-11.4,11.4C190.3,411.4,195.4,416.6,201.6,416.6"/>
			<path id="XMLID_34_" fill-rule="evenodd" clip-rule="evenodd" fill="#FFFFFF" d="M211.5,402.1c0-2.9-2.3-5.2-5.2-5.2
				c-2.9,0-5.2,2.3-5.2,5.2c0,2.9,2.3,5.2,5.2,5.2C209.1,407.3,211.5,405,211.5,402.1"/>
			<path id="XMLID_33_" fill-rule="evenodd" clip-rule="evenodd" fill="#FCC296" d="M251,446.2c-7.2-0.4-19.5,1.4-18.8,1.8
				c1.1,0.4,9,4.7,16.2,6.1c1.1,0.4,2.2,0,2.5,0c0.7,0.4,1.4,0.4,2.5,0c6.9-1.4,15.2-5.8,16.2-6.1
				C270.9,447.6,258.3,445.8,251,446.2"/>
			<path id="XMLID_32_" fill-rule="evenodd" clip-rule="evenodd" fill="#404D5F" d="M125.6,987.2c-1.8,0-0.8,10.1-2.2,10.2
				c0,0-14.8,127.6-15.8,130.5l56.9,10c3.2-2.5,11-51.1,12-54.6c2.4-7.9,18-75.5,20.1-89.7c9.2-37.6,26.3-117.7,50.4-116.4
				c22.8,1.5,36.9,79.2,47,115.8l17.5,90.4c1,3.5,10.5,51.7,13.7,54.2l63.5-1.2c-9.8-46.8-17.6-101.1-26.7-149.2
				c-11.5-109.1-16.6-167.2-14.8-273.4c-9.9-10.2-14.7-28-14.8-52.7H168.5c0.6,23.3-3.4,40.6-12.9,51.1c-1.3,43,0.8,92.1-1.5,108.6
				C146.5,846.6,127.1,953.9,125.6,987.2"/>
			
				<rect id="XMLID_31_" x="243.5" y="699.9" transform="matrix(0.8632 -0.5048 0.5048 0.8632 -334.6533 222.7737)" fill-rule="evenodd" clip-rule="evenodd" fill="#9DA1A8" width="0.6" height="58.1"/>
			<path id="XMLID_30_" fill-rule="evenodd" clip-rule="evenodd" fill="#8C7263" d="M365.4,683.1c6.5,4.5,13.1,8.1,16.5,5.1
				c6.7-5.7,49.2-39.1,46.7-42.2c-0.6-0.7-4-5-9.1-11.4C402.5,652.7,384.4,668.6,365.4,683.1"/>
			<path id="XMLID_29_" fill-rule="evenodd" clip-rule="evenodd" fill="#8C7263" d="M76.2,613.9c-5.6,4.1-9.7,7.1-11.6,8.3
				c1.1,19,22.6,49.3,54.1,73.7c2.8-1,6.3-3,9.9-5.3C109,667.3,91.2,642.2,76.2,613.9"/>
			<path id="XMLID_28_" fill-rule="evenodd" clip-rule="evenodd" fill="#3A3F43" d="M58.5,1192.9c0,0-9.4,1.7-10.1,11.1
				c-0.6,9.4,11,8.2,29.6,12.5c18.6,4.2,31.2,6.3,38.8-1.9c7.5-8.2,12.5-15.9,27-21.1c14.5-5.2,24.1-9.9,24-16.5
				c-0.1-6.6-2.3-11.9-4.9-13.2C160.2,1162.5,58.5,1192.9,58.5,1192.9"/>
			<path id="XMLID_27_" fill-rule="evenodd" clip-rule="evenodd" fill="#121314" d="M103.9,1140.1c0,0-18.1,28.2-25.6,34
				c-7.5,5.8-23.3,11.3-24,18.9c-0.8,7.6,25.1,13.7,43.8,13.2c18.7-0.5,29.6-12.6,36.7-19.2c7.1-6.5,31-18.3,31-18.3
				s2.4-16.1-3-25.3L103.9,1140.1z"/>
			<path id="XMLID_26_" fill-rule="evenodd" clip-rule="evenodd" fill="#B69D86" d="M105.2,1116.1c0,0-8,1.5-8.2,5.5
				c-0.1,4,0.6,18.5,0.6,18.5c0,0,16.5,7.4,33,9.5c16.5,2,27.9-2.2,31.3-3.1c3.4-0.9,9.9-8.7,10.2-9.9c0.3-1.3,0.5-15.6,0.5-15.6
				c0,0,5.1-0.5-4.6,0.6c-9.7,1.1-12,1.4-18,2c-6,0.7-8.7,2.2-17.5,0c-8.8-2.3-17.6-4.6-19.7-5.1
				C110.5,1117.9,105.2,1116.1,105.2,1116.1"/>
			<path id="XMLID_25_" fill-rule="evenodd" clip-rule="evenodd" fill="#2C1F1C" d="M117.8,1147.1c-4.3-1.1-8.2-2.4-11.5-3.5
				c1-2.1,1.6-3.4,1.6-3.4l12.6,3.6c0,0-0.3,1.3-0.9,3.7C119,1147.4,118.4,1147.2,117.8,1147.1"/>
			<path id="XMLID_24_" fill-rule="evenodd" clip-rule="evenodd" fill="#335072" d="M105.2,1116.1c0,0-8,1.5-8.2,5.5
				c-0.1,4,0.6,18.5,0.6,18.5c0,0,16.5,7.4,33,9.5c16.5,2,27.9-2.2,31.3-3.1c3.4-0.9,9.9-8.6,10.2-9.9c0.3-1.3,0.5-15.6,0.5-15.6
				c0,0,5.1-0.5-4.6,0.6c-9.7,1.1-12,1.4-18,2c-6,0.7-8.7,2.2-17.5,0c-8.8-2.3-17.6-4.6-19.7-5.1
				C110.5,1117.9,105.2,1116.1,105.2,1116.1"/>
			<path id="XMLID_23_" fill-rule="evenodd" clip-rule="evenodd" fill="#3A3F43" d="M431.3,1192.9c0,0,9.4,1.7,10.1,11.1
				c0.6,9.4-11,8.2-29.6,12.5c-18.6,4.2-31.2,6.3-38.8-1.9c-7.5-8.2-12.5-15.9-27-21.1c-14.5-5.2-24.1-9.9-24-16.5
				c0.1-6.6,2.3-11.9,4.9-13.2C329.5,1162.5,431.3,1192.9,431.3,1192.9"/>
			<path id="XMLID_22_" fill-rule="evenodd" clip-rule="evenodd" fill="#121314" d="M385.9,1140.1c0,0,18.1,28.2,25.6,34
				c7.5,5.8,23.3,11.3,24,18.9c0.8,7.6-25.1,13.7-43.8,13.2c-18.7-0.5-29.6-12.6-36.7-19.2c-7.1-6.5-31-18.3-31-18.3
				s-2.4-16.1,3-25.3L385.9,1140.1z"/>
			<path id="XMLID_21_" fill-rule="evenodd" clip-rule="evenodd" fill="#B69D86" d="M384.6,1116.1c0,0,8,1.5,8.2,5.5
				c0.1,4-0.6,18.5-0.6,18.5c0,0-16.5,7.4-33,9.5c-16.5,2-27.9-2.2-31.3-3.1c-3.4-0.9-9.9-8.7-10.2-9.9c-0.3-1.3-0.5-15.6-0.5-15.6
				c0,0-5.1-0.5,4.6,0.6c9.7,1.1,12,1.4,18,2c6,0.7,8.7,2.2,17.5,0c8.8-2.3,17.6-4.6,19.7-5.1
				C379.2,1117.9,384.6,1116.1,384.6,1116.1"/>
			<path id="XMLID_20_" fill-rule="evenodd" clip-rule="evenodd" fill="#2C1F1C" d="M371.9,1147.1c4.3-1.1,8.2-2.4,11.5-3.5
				c-1-2.1-1.6-3.4-1.6-3.4l-12.6,3.6c0,0,0.3,1.3,0.9,3.7C370.8,1147.4,371.4,1147.2,371.9,1147.1"/>
			<path id="XMLID_19_" fill-rule="evenodd" clip-rule="evenodd" fill="#335072" d="M384.6,1116.1c0,0,8,1.5,8.2,5.5
				c0.1,4-0.6,18.5-0.6,18.5c0,0-16.5,7.4-33,9.5c-16.5,2-27.9-2.2-31.3-3.1c-3.4-0.9-9.9-8.6-10.2-9.9c-0.3-1.3-0.5-15.6-0.5-15.6
				c0,0-5.1-0.5,4.6,0.6c9.7,1.1,12,1.4,18,2c6,0.7,8.7,2.2,17.5,0c8.8-2.3,17.6-4.6,19.7-5.1
				C379.2,1117.9,384.6,1116.1,384.6,1116.1"/>
			<path id="XMLID_18_" fill-rule="evenodd" clip-rule="evenodd" fill="#4B5A6C" d="M194.8,704.1h106.6v63.5
				c0,29.3-24,53.3-53.3,53.3h0c-29.3,0-53.3-24-53.3-53.3V704.1z"/>
			<rect id="XMLID_17_" x="194.8" y="704.1" fill-rule="evenodd" clip-rule="evenodd" fill="#5A6A7D" width="106.6" height="22.9"/>
			<path id="XMLID_16_" fill-rule="evenodd" clip-rule="evenodd" fill="#404D5F" d="M192.2,551.2c-6.2,1.3-12.3,2.1-17.8,2.8v125.8
				h17.8V551.2z"/>
			<path id="XMLID_15_" fill-rule="evenodd" clip-rule="evenodd" fill="#FFFFFF" d="M183.3,666c2.5,0,4.5,2,4.5,4.5
				c0,2.5-2,4.5-4.5,4.5c-2.5,0-4.5-2-4.5-4.5C178.8,668.1,180.8,666,183.3,666"/>
			<path id="XMLID_14_" fill-rule="evenodd" clip-rule="evenodd" fill="#6D6F71" d="M183.3,667.6c0.4,0,0.8,0.4,0.8,0.8
				c0,0.4-0.4,0.8-0.8,0.8c-0.4,0-0.8-0.4-0.8-0.8C182.6,667.9,182.9,667.6,183.3,667.6"/>
			<path id="XMLID_13_" fill-rule="evenodd" clip-rule="evenodd" fill="#6D6F71" d="M183.3,671.9c0.4,0,0.8,0.4,0.8,0.8
				c0,0.4-0.4,0.8-0.8,0.8c-0.4,0-0.8-0.4-0.8-0.8C182.6,672.3,182.9,671.9,183.3,671.9"/>
			<path id="XMLID_12_" fill-rule="evenodd" clip-rule="evenodd" fill="#6D6F71" d="M180.4,670.6c0-0.4,0.4-0.8,0.8-0.8
				s0.8,0.4,0.8,0.8c0,0.4-0.4,0.8-0.8,0.8S180.4,671,180.4,670.6"/>
			<path id="XMLID_11_" fill-rule="evenodd" clip-rule="evenodd" fill="#6D6F71" d="M184.7,670.6c0-0.4,0.4-0.8,0.8-0.8
				c0.4,0,0.8,0.4,0.8,0.8c0,0.4-0.4,0.8-0.8,0.8C185.1,671.4,184.7,671,184.7,670.6"/>
			<path id="XMLID_10_" fill-rule="evenodd" clip-rule="evenodd" fill="#404D5F" d="M325.8,553.7v126.1H308V552.2
				C313.7,552.8,319.9,553.3,325.8,553.7"/>
			<path id="XMLID_9_" fill-rule="evenodd" clip-rule="evenodd" fill="#FFFFFF" d="M316.9,666c2.5,0,4.5,2,4.5,4.5
				c0,2.5-2,4.5-4.5,4.5c-2.5,0-4.5-2-4.5-4.5C312.3,668.1,314.4,666,316.9,666"/>
			<path id="XMLID_8_" fill-rule="evenodd" clip-rule="evenodd" fill="#6D6F71" d="M316.9,667.6c0.4,0,0.8,0.4,0.8,0.8
				c0,0.4-0.4,0.8-0.8,0.8c-0.4,0-0.8-0.4-0.8-0.8C316.1,667.9,316.4,667.6,316.9,667.6"/>
			<path id="XMLID_7_" fill-rule="evenodd" clip-rule="evenodd" fill="#6D6F71" d="M316.9,671.9c0.4,0,0.8,0.4,0.8,0.8
				c0,0.4-0.4,0.8-0.8,0.8c-0.4,0-0.8-0.4-0.8-0.8C316.1,672.3,316.4,671.9,316.9,671.9"/>
			<path id="XMLID_6_" fill-rule="evenodd" clip-rule="evenodd" fill="#6D6F71" d="M313.9,670.6c0-0.4,0.4-0.8,0.8-0.8
				c0.4,0,0.8,0.4,0.8,0.8c0,0.4-0.4,0.8-0.8,0.8C314.2,671.4,313.9,671,313.9,670.6"/>
			<path id="XMLID_5_" fill-rule="evenodd" clip-rule="evenodd" fill="#6D6F71" d="M318.2,670.6c0-0.4,0.4-0.8,0.8-0.8
				c0.4,0,0.8,0.4,0.8,0.8c0,0.4-0.4,0.8-0.8,0.8C318.6,671.4,318.2,671,318.2,670.6"/>
			<path id="XMLID_4_" fill-rule="evenodd" clip-rule="evenodd" fill="#F5B671" d="M135.6,313h229.8l-9.8-49.7
				c-2-10-11.2-18.3-24.8-18.3H168.4c-13.7,0-23.2,8.3-24.8,18.3L135.6,313z"/>
			<polygon id="XMLID_3_" fill-rule="evenodd" clip-rule="evenodd" fill="#8B683A" points="135.6,313 365.4,313 359.7,284 
				140.2,284 			"/>
			<path id="XMLID_2_" fill-rule="evenodd" clip-rule="evenodd" fill="#F5B671" d="M78.5,340.6h343.9V318c0-7.4-6-13.4-13.4-13.4
				H91.9c-7.4,0-13.4,6-13.4,13.4V340.6z"/>
		</g>
		<path id="XMLID_398_" fill-rule="evenodd" clip-rule="evenodd" fill="#B9D252" d="M1133.8,925c1.7,0,3.4,0,5.2,0
			C1137.2,925,1135.4,924.6,1133.8,925z"/>
		<path id="XMLID_399_" fill-rule="evenodd" clip-rule="evenodd" fill="#B9D252" d="M528.2,886.5c0.4-1.5,0.9-3,1.3-4.5
			C528.2,883.3,527.9,884.9,528.2,886.5z"/>
		<path id="XMLID_414_" fill-rule="evenodd" clip-rule="evenodd" fill="#80AB43" d="M1046.2,330.7c-0.5-1.8-1.6-3.4-3-4.6
			C1043.8,327.9,1044.7,329.5,1046.2,330.7z"/>
		<path id="XMLID_415_" fill-rule="evenodd" clip-rule="evenodd" fill="#80AB43" d="M1136.4,459.9c-0.3-0.6-0.7-1.1-1.1-1.7
			C1135.6,458.8,1136,459.3,1136.4,459.9z"/>
		<path id="XMLID_419_" fill-rule="evenodd" clip-rule="evenodd" fill="#80AB43" d="M968.2,400.6c1.7-0.9,3.2-2,4.5-3.3
			C971.1,398.2,969.6,399.4,968.2,400.6z"/>
		<path id="XMLID_420_" fill-rule="evenodd" clip-rule="evenodd" fill="#80AB43" d="M970.9,363c1.5,0.7,3.1,1.1,4.7,1.2
			C974.1,363.8,972.5,363.4,970.9,363z"/>
	</g>
</g>
</svg>
